<svg width="26" height="26" viewBox="0 0 26 26" fill="none" xmlns="http://www.w3.org/2000/svg">
<path d="M23.1223 13.3754V11.9698C23.1223 6.51841 18.6539 1.91191 13.2066 2.00128C10.6499 2.04496 8.2127 3.09136 6.42024 4.91498C4.62777 6.7386 3.62352 9.19344 3.62389 11.7505V13.3754C3.19295 13.3754 2.77966 13.5465 2.47494 13.8513C2.17021 14.156 1.99902 14.5693 1.99902 15.0002V19.8748C1.99902 20.3058 2.17021 20.7191 2.47494 21.0238C2.77966 21.3285 3.19295 21.4997 3.62389 21.4997H5.24876C5.6797 21.4997 6.09299 21.3285 6.39772 21.0238C6.70244 20.7191 6.87363 20.3058 6.87363 19.8748V11.9333C6.87363 8.43576 9.56278 5.43381 13.0603 5.25914C13.9391 5.2168 14.8173 5.35332 15.6418 5.66042C16.4663 5.96753 17.2198 6.43883 17.8568 7.04577C18.4937 7.6527 19.0008 8.38264 19.3473 9.19134C19.6938 10 19.8725 10.8707 19.8726 11.7505V20.281C19.8726 21.0352 19.573 21.7585 19.0397 22.2917C18.5065 22.825 17.7832 23.1246 17.0291 23.1246C16.2749 23.1246 15.5516 22.825 15.0184 22.2917C14.4851 21.7585 14.1855 21.0352 14.1855 20.281V19.8748C14.401 19.8748 14.6077 19.7892 14.76 19.6369C14.9124 19.4845 14.998 19.2779 14.998 19.0624V15.8127C14.998 15.5972 14.9124 15.3905 14.76 15.2382C14.6077 15.0858 14.401 15.0002 14.1855 15.0002H12.5607C12.3452 15.0002 12.1385 15.0858 11.9862 15.2382C11.8338 15.3905 11.7482 15.5972 11.7482 15.8127V19.0624C11.7482 19.2779 11.8338 19.4845 11.9862 19.6369C12.1385 19.7892 12.3452 19.8748 12.5607 19.8748V20.281C12.5617 21.3588 12.9522 22.3999 13.6603 23.2124C14.3684 24.0249 15.3463 24.5542 16.4138 24.7026C17.4813 24.851 18.5665 24.6086 19.4693 24.02C20.3722 23.4314 21.0319 22.5363 21.3268 21.4997C21.3837 21.5027 21.4406 21.5027 21.4974 21.4997H23.1223C23.5533 21.4997 23.9665 21.3285 24.2713 21.0238C24.576 20.7191 24.7472 20.3058 24.7472 19.8748V15.0002C24.7472 14.5693 24.576 14.156 24.2713 13.8513C23.9665 13.5465 23.5533 13.3754 23.1223 13.3754Z" fill="#8A8A8A"/>
<path d="M12.918 14.1885H13.8279C13.9228 14.1885 14.0137 14.1508 14.0807 14.0838C14.1478 14.0167 14.1854 13.9258 14.1854 13.831V10.2725C14.1849 10.1779 14.147 10.0873 14.0798 10.0207L13.6248 9.5657C13.5579 9.49922 13.4673 9.46191 13.373 9.46191C13.2786 9.46191 13.1881 9.49922 13.1211 9.5657L12.6662 10.0207C12.599 10.0873 12.561 10.1779 12.5605 10.2725V13.831C12.5605 13.9258 12.5982 14.0167 12.6652 14.0838C12.7323 14.1508 12.8232 14.1885 12.918 14.1885Z" fill="#8A8A8A"/>
</svg>
