<svg width="26" height="26" viewBox="0 0 26 26" fill="none" xmlns="http://www.w3.org/2000/svg">
<path d="M10.5625 24.375V21.3281C10.5625 20.7675 11.0175 20.3125 11.5781 20.3125H14.4219C14.9825 20.3125 15.4456 20.7675 15.4456 21.3363V24.375H24.375V7.55625C24.375 7.31084 24.3267 7.06784 24.2327 6.84111C24.1388 6.61438 24.0012 6.40837 23.8277 6.23484C23.6541 6.06132 23.4481 5.92366 23.2214 5.82975C22.9947 5.73584 22.7517 5.6875 22.5063 5.6875H21.125V3.62375C21.125 2.51875 20.2313 1.625 19.1263 1.625H6.87375C5.76875 1.625 4.875 2.51875 4.875 3.62375V5.6875H3.49375C3.24834 5.6875 3.00534 5.73584 2.77861 5.82975C2.55188 5.92366 2.34587 6.06132 2.17234 6.23484C1.99881 6.40837 1.86116 6.61438 1.76725 6.84111C1.67334 7.06784 1.625 7.31084 1.625 7.55625V24.375H10.5625ZM4.875 19.5H4.0625C3.61563 19.5 3.25 19.1344 3.25 18.6875V17.875C3.25 17.4281 3.61563 17.0625 4.0625 17.0625H4.875V19.5ZM4.875 15.4375H4.0625C3.61563 15.4375 3.25 15.0719 3.25 14.625V13.8125C3.25 13.3656 3.61563 13 4.0625 13H4.875V15.4375ZM4.875 11.375H4.0625C3.61563 11.375 3.25 11.0094 3.25 10.5625V9.75C3.25 9.30312 3.61563 8.9375 4.0625 8.9375H4.875V11.375ZM21.125 8.9375H21.9375C22.3844 8.9375 22.75 9.30312 22.75 9.75V10.5625C22.75 11.0175 22.3844 11.375 21.9375 11.375H21.125V8.9375ZM21.125 13H21.9375C22.3844 13 22.75 13.3656 22.75 13.8125V14.625C22.75 15.08 22.3844 15.4375 21.9375 15.4375H21.125V13ZM21.125 17.0625H21.9375C22.3844 17.0625 22.75 17.4281 22.75 17.875V18.6875C22.75 19.1425 22.3844 19.5 21.9375 19.5H21.125V17.0625ZM9.34375 14.625C9.12437 14.625 8.9375 14.4462 8.9375 14.2188V12.5856C8.9375 12.3663 9.11625 12.1794 9.34375 12.1794H11.7894C12.0087 12.1794 12.1956 12.3581 12.1956 12.5856V14.2188C12.1935 14.3272 12.1489 14.4306 12.0714 14.5065C11.9939 14.5825 11.8898 14.625 11.7812 14.625H9.34375ZM17.0625 12.5938V14.2269C17.0625 14.4462 16.8837 14.625 16.6644 14.6331H14.2188C13.9913 14.6331 13.8125 14.4462 13.8125 14.2269V12.5938C13.8125 12.3663 13.9994 12.1875 14.2188 12.1875H16.6562C16.8837 12.1875 17.0625 12.3744 17.0625 12.5938ZM12.1875 16.6562V18.2894C12.1875 18.5088 12.0087 18.6875 11.7894 18.6956H9.34375C9.11625 18.6956 8.9375 18.5088 8.9375 18.2894V16.6562C8.9375 16.4288 9.12437 16.25 9.34375 16.25H11.7812C12.0087 16.25 12.1875 16.4369 12.1875 16.6562ZM17.0625 16.6562V18.2894C17.0625 18.5088 16.8837 18.6875 16.6644 18.6956H14.2188C13.9913 18.6956 13.8125 18.5088 13.8125 18.2894V16.6562C13.8125 16.4288 13.9994 16.25 14.2188 16.25H16.6562C16.8837 16.25 17.0625 16.4369 17.0625 16.6562ZM12.1875 4.46875V6.10188C12.1875 6.32125 12.0087 6.5 11.7894 6.50813H9.34375C9.11625 6.50813 8.9375 6.32125 8.9375 6.10188V4.46875C8.9375 4.24125 9.12437 4.0625 9.34375 4.0625H11.7812C12.0087 4.0625 12.1875 4.24938 12.1875 4.46875ZM17.0625 4.46875V6.10188C17.0625 6.32125 16.8837 6.5 16.6644 6.50813H14.2188C13.9913 6.50813 13.8125 6.32125 13.8125 6.10188V4.46875C13.8125 4.24125 13.9994 4.0625 14.2188 4.0625H16.6562C16.8837 4.0625 17.0625 4.24938 17.0625 4.46875ZM12.1875 8.53125V10.1644C12.1875 10.3837 12.0087 10.5625 11.7894 10.5706H9.34375C9.11625 10.5706 8.9375 10.3837 8.9375 10.1644V8.53125C8.9375 8.30375 9.12437 8.125 9.34375 8.125H11.7812C12.0087 8.125 12.1875 8.31187 12.1875 8.53125ZM17.0625 8.53125V10.1644C17.0625 10.3837 16.8837 10.5625 16.6644 10.5706H14.2188C13.9913 10.5706 13.8125 10.3837 13.8125 10.1644V8.53125C13.8125 8.30375 13.9994 8.125 14.2188 8.125H16.6562C16.8837 8.125 17.0625 8.31187 17.0625 8.53125Z" fill="#8A8A8A"/>
</svg>
