<svg width="18" height="18" viewBox="0 0 18 18" fill="none" xmlns="http://www.w3.org/2000/svg">
<path d="M9 0.25C7.26942 0.25 5.57769 0.763179 4.13876 1.72464C2.69983 2.6861 1.57832 4.05267 0.916058 5.65152C0.253791 7.25037 0.080512 9.00971 0.418133 10.707C0.755753 12.4044 1.58911 13.9635 2.81282 15.1872C4.03653 16.4109 5.59563 17.2442 7.29296 17.5819C8.9903 17.9195 10.7496 17.7462 12.3485 17.0839C13.9473 16.4217 15.3139 15.3002 16.2754 13.8612C17.2368 12.4223 17.75 10.7306 17.75 9C17.75 6.67936 16.8281 4.45376 15.1872 2.81282C13.5462 1.17187 11.3206 0.25 9 0.25ZM9 4C9.30904 4 9.61113 4.09164 9.86808 4.26333C10.125 4.43502 10.3253 4.67905 10.4436 4.96456C10.5618 5.25007 10.5928 5.56423 10.5325 5.86733C10.4722 6.17042 10.3234 6.44883 10.1049 6.66735C9.88634 6.88587 9.60793 7.03469 9.30483 7.09498C9.00174 7.15527 8.68757 7.12432 8.40206 7.00606C8.11655 6.8878 7.87252 6.68753 7.70083 6.43058C7.52914 6.17363 7.4375 5.87153 7.4375 5.5625C7.4375 5.1481 7.60212 4.75067 7.89515 4.45765C8.18818 4.16462 8.5856 4 9 4ZM11.5 13.5312C11.5 13.6556 11.4506 13.7748 11.3627 13.8627C11.2748 13.9506 11.1556 14 11.0313 14H6.96875C6.84443 14 6.72521 13.9506 6.6373 13.8627C6.54939 13.7748 6.5 13.6556 6.5 13.5312V13.2188C6.5 13.0944 6.54939 12.9752 6.6373 12.8873C6.72521 12.7994 6.84443 12.75 6.96875 12.75C7.09307 12.75 7.2123 12.7006 7.30021 12.6127C7.38812 12.5248 7.4375 12.4056 7.4375 12.2812V9.46875C7.4375 9.34443 7.38812 9.2252 7.30021 9.13729C7.2123 9.04939 7.09307 9 6.96875 9C6.84443 9 6.72521 8.95061 6.6373 8.86271C6.54939 8.7748 6.5 8.65557 6.5 8.53125V8.21875C6.5 8.09443 6.54939 7.9752 6.6373 7.88729C6.72521 7.79939 6.84443 7.75 6.96875 7.75H10.0938C10.2181 7.75 10.3373 7.79939 10.4252 7.88729C10.5131 7.9752 10.5625 8.09443 10.5625 8.21875V12.2812C10.5625 12.4056 10.6119 12.5248 10.6998 12.6127C10.7877 12.7006 10.9069 12.75 11.0313 12.75C11.1556 12.75 11.2748 12.7994 11.3627 12.8873C11.4506 12.9752 11.5 13.0944 11.5 13.2188V13.5312Z" fill="#595959"/>
</svg>
