<svg width="29" height="30" viewBox="0 0 29 30" fill="none" xmlns="http://www.w3.org/2000/svg">
<path d="M9.58014 25.7507H19.7492C21.2665 25.7294 22.7139 25.109 23.7755 24.0247C24.8372 22.9404 25.4269 21.4803 25.4161 19.9628V10.0357C25.4269 8.51822 24.8372 7.05809 23.7755 5.97379C22.7139 4.8895 21.2665 4.26905 19.7492 4.2478H9.58014C8.06281 4.26905 6.61545 4.8895 5.55382 5.97379C4.49219 7.05809 3.90244 8.51822 3.91323 10.0357V19.9628C3.90244 21.4803 4.49219 22.9404 5.55382 24.0247C6.61545 25.109 8.06281 25.7294 9.58014 25.7507ZM20.9364 7.83162C21.2032 7.82628 21.4657 7.90054 21.6902 8.04493C21.9147 8.18932 22.0911 8.3973 22.197 8.64235C22.3028 8.8874 22.3333 9.15843 22.2845 9.42087C22.2358 9.68331 22.1099 9.92529 21.9231 10.1159C21.7362 10.3066 21.4969 10.4373 21.2355 10.4914C20.9741 10.5454 20.7025 10.5204 20.4553 10.4195C20.2082 10.3187 19.9967 10.1465 19.8478 9.92491C19.6989 9.70336 19.6194 9.44249 19.6193 9.17555C19.6192 8.82372 19.7571 8.4859 20.0034 8.23462C20.2496 7.98335 20.5846 7.83865 20.9364 7.83162ZM14.6647 9.62353C15.7324 9.60128 16.7825 9.89755 17.6812 10.4746C18.5798 11.0516 19.2862 11.8831 19.7103 12.8633C20.1344 13.8434 20.257 14.9276 20.0624 15.9777C19.8678 17.0277 19.3648 17.996 18.6177 18.7591C17.8705 19.5221 16.913 20.0453 15.8673 20.262C14.8216 20.4787 13.735 20.379 12.7462 19.9756C11.7574 19.5722 10.9111 18.8834 10.3153 17.9972C9.71949 17.1109 9.40118 16.0672 9.40095 14.9992C9.38661 13.5885 9.93301 12.2298 10.92 11.2218C11.9071 10.2138 13.254 9.63889 14.6647 9.62353Z" fill="white"/>
</svg>
