<svg width="29" height="30" viewBox="0 0 29 30" fill="none" xmlns="http://www.w3.org/2000/svg">
<path d="M8.46879 10.7888H4.29365C3.96212 10.7888 3.69336 11.0576 3.69336 11.3891V25.151C3.69336 25.4825 3.96212 25.7512 4.29365 25.7512H8.46879C8.80032 25.7512 9.06908 25.4825 9.06908 25.151V11.3891C9.06908 11.0576 8.80032 10.7888 8.46879 10.7888Z" fill="white"/>
<path d="M20.9947 10.6444C20.217 10.6149 19.4416 10.7479 18.7181 11.0348C17.9946 11.3217 17.3388 11.7563 16.7927 12.3109C16.7521 12.3539 16.6996 12.3837 16.642 12.3965C16.5843 12.4094 16.5241 12.4047 16.4691 12.383C16.4141 12.3613 16.3669 12.3236 16.3336 12.2748C16.3002 12.226 16.2823 12.1684 16.282 12.1093V11.3836C16.282 11.3047 16.2665 11.2267 16.2363 11.1538C16.2061 11.081 16.1619 11.0148 16.1062 10.9591C16.0504 10.9034 15.9843 10.8591 15.9114 10.829C15.8386 10.7988 15.7605 10.7833 15.6817 10.7833H11.4573C11.3779 10.7833 11.2993 10.7991 11.2261 10.8299C11.153 10.8607 11.0867 10.9058 11.0312 10.9625C10.9757 11.0193 10.9321 11.0865 10.9029 11.1604C10.8738 11.2342 10.8597 11.3132 10.8615 11.3925C10.8973 13.9415 10.8615 22.7622 10.8615 25.1499C10.8603 25.3071 10.9213 25.4585 11.0312 25.5709C11.1412 25.6834 11.2911 25.7478 11.4483 25.7502H15.6862C15.8454 25.7502 15.9981 25.6869 16.1107 25.5744C16.2232 25.4618 16.2865 25.3091 16.2865 25.1499V17.6552C16.2509 17.2439 16.2904 16.8295 16.403 16.4323C16.5827 15.8968 16.9266 15.4317 17.3858 15.1028C17.845 14.7739 18.3961 14.598 18.9609 14.6C20.8021 14.6 21.6488 15.9843 21.6488 18.0091V25.1499C21.6487 25.306 21.7095 25.4561 21.8182 25.5682C21.9269 25.6802 22.0751 25.7455 22.2311 25.7502H26.3884C26.4672 25.7502 26.5452 25.7347 26.6181 25.7045C26.6909 25.6743 26.7571 25.6301 26.8128 25.5744C26.8686 25.5186 26.9128 25.4524 26.943 25.3796C26.9731 25.3068 26.9886 25.2287 26.9886 25.1499V17.4313C26.9886 12.7947 24.3501 10.6444 20.9947 10.6444Z" fill="white"/>
<path d="M6.33642 9.11731H6.38122C8.0477 9.11731 9.06908 8.04217 9.06908 6.68032C9.06908 5.31847 8.03426 4.2478 6.38122 4.2478C4.72819 4.2478 3.69336 5.29607 3.69336 6.6848C3.69336 8.07353 4.73267 9.11731 6.33642 9.11731Z" fill="white"/>
</svg>
