<svg width="32" height="32" viewBox="0 0 32 32" fill="none" xmlns="http://www.w3.org/2000/svg">
<path d="M28.6425 0H2.8575C2.09964 0 1.37283 0.301057 0.836942 0.836942C0.301057 1.37283 0 2.09964 0 2.8575V28.6425C0 29.4004 0.301057 30.1272 0.836942 30.6631C1.37283 31.1989 2.09964 31.5 2.8575 31.5H28.6425C29.4004 31.5 30.1272 31.1989 30.6631 30.6631C31.1989 30.1272 31.5 29.4004 31.5 28.6425V2.8575C31.5 2.09964 31.1989 1.37283 30.6631 0.836942C30.1272 0.301057 29.4004 0 28.6425 0ZM10.1194 5.34375C10.5184 5.3504 10.9065 5.47479 11.2351 5.70131C11.5636 5.92782 11.8179 6.24636 11.966 6.61692C12.1141 6.98747 12.1494 7.39353 12.0675 7.78409C11.9856 8.17465 11.7901 8.53231 11.5056 8.81214C11.2211 9.09198 10.8603 9.28152 10.4684 9.35696C10.0766 9.43239 9.67115 9.39037 9.3031 9.23616C8.93504 9.08195 8.62075 8.82243 8.39969 8.49019C8.17864 8.15795 8.06068 7.76781 8.06062 7.36875C8.06209 7.10039 8.11659 6.83497 8.22099 6.58774C8.32539 6.34052 8.47762 6.11637 8.66895 5.92818C8.86027 5.73999 9.08691 5.59148 9.33582 5.49118C9.58474 5.39088 9.85103 5.34078 10.1194 5.34375ZM27.6525 21.5325C26.8425 23.7825 25.5094 24.75 23.8838 24.75C21.7969 24.75 20.7956 23.5125 20.7956 21.8137C20.7943 21.3018 20.8663 20.7922 21.0094 20.3006L22.0106 16.7288C22.1165 16.3749 22.1677 16.0069 22.1625 15.6375C22.1864 15.3917 22.156 15.1437 22.0735 14.9109C21.9911 14.6781 21.8585 14.4663 21.6853 14.2904C21.512 14.1144 21.3022 13.9786 21.0708 13.8926C20.8393 13.8066 20.5917 13.7724 20.3456 13.7925C18.9225 13.7925 17.9831 14.8106 17.4994 16.7794L15.5925 24.3788C15.5671 24.4848 15.5067 24.5792 15.4209 24.6466C15.3351 24.714 15.2291 24.7505 15.12 24.75H12.7462C12.6724 24.7505 12.5994 24.7341 12.5328 24.702C12.4663 24.67 12.408 24.6231 12.3623 24.565C12.3167 24.5069 12.285 24.4391 12.2697 24.3668C12.2543 24.2946 12.2557 24.2198 12.2737 24.1481L12.6562 22.6013C12.6596 22.5818 12.6564 22.5618 12.6472 22.5443C12.638 22.5268 12.6233 22.5129 12.6054 22.5046C12.5875 22.4962 12.5674 22.494 12.5481 22.4983C12.5288 22.5026 12.5115 22.513 12.4987 22.5281C11.5312 23.9119 10.2487 24.75 8.69062 24.75C6.63187 24.75 5.66437 23.5631 5.66437 21.78C5.66949 21.2647 5.73175 20.7516 5.85 20.25L7.245 14.5463C7.26304 14.4746 7.26443 14.3998 7.24908 14.3275C7.23372 14.2553 7.20202 14.1875 7.1564 14.1294C7.11079 14.0713 7.05247 14.0244 6.98592 13.9923C6.91938 13.9603 6.84637 13.9439 6.7725 13.9444C6.41744 13.9444 6.07693 13.8033 5.82586 13.5523C5.5748 13.3012 5.43375 12.9607 5.43375 12.6056C5.43375 12.2506 5.5748 11.91 5.82586 11.659C6.07693 11.4079 6.41744 11.2669 6.7725 11.2669H10.8731C10.947 11.2664 11.02 11.2828 11.0865 11.3148C11.1531 11.3469 11.2114 11.3938 11.257 11.4519C11.3026 11.51 11.3343 11.5778 11.3497 11.65C11.3651 11.7223 11.3637 11.7971 11.3456 11.8688L9.20812 20.25C9.08032 20.7007 9.00853 21.1655 8.99437 21.6337C8.99437 22.1962 9.27562 22.3762 9.72 22.4775C9.99 22.5394 12.1162 22.4775 13.2919 19.9406C13.306 19.9098 13.3173 19.8778 13.3256 19.845L14.6531 14.5294C14.6712 14.4577 14.6726 14.3829 14.6572 14.3107C14.6418 14.2384 14.6101 14.1706 14.5645 14.1125C14.5189 14.0544 14.4606 14.0075 14.394 13.9755C14.3275 13.9434 14.2545 13.927 14.1806 13.9275H14.1356C13.7806 13.9275 13.44 13.7865 13.189 13.5354C12.9379 13.2843 12.7969 12.9438 12.7969 12.5887C12.7969 12.2337 12.9379 11.8932 13.189 11.6421C13.44 11.391 13.7806 11.25 14.1356 11.25H17.6794C17.7492 11.2507 17.818 11.2665 17.8811 11.2963C17.9442 11.3261 18.0001 11.3691 18.045 11.4226C18.0899 11.476 18.1227 11.5385 18.1411 11.6058C18.1596 11.6731 18.1632 11.7436 18.1519 11.8125L18.09 12.0881C18.066 12.1902 18.0759 12.2973 18.118 12.3933C18.1602 12.4892 18.2324 12.5689 18.3238 12.6203C18.4152 12.6717 18.5208 12.6921 18.6247 12.6782C18.7286 12.6644 18.8252 12.6172 18.9 12.5437C19.7295 11.619 20.8844 11.0507 22.1231 10.9575C24.03 10.9575 25.605 12.3131 25.605 14.895C25.6023 15.6422 25.4905 16.3851 25.2731 17.1L24.3056 20.5763C24.2179 20.8822 24.1669 21.1976 24.1538 21.5156C24.1538 22.1231 24.3956 22.4213 24.8513 22.4213C25.3069 22.4213 25.7175 22.2469 26.28 20.97C26.3567 20.7985 26.4965 20.6631 26.6703 20.5919C26.8442 20.5207 27.0388 20.5191 27.2138 20.5875C27.3963 20.6559 27.5446 20.7933 27.6267 20.9701C27.7088 21.1469 27.7181 21.3489 27.6525 21.5325Z" fill="#161414"/>
</svg>
