<svg width="14" height="14" viewBox="0 0 14 14" fill="none" xmlns="http://www.w3.org/2000/svg">
<path d="M6.56289 13.9125C6.65039 14 6.82539 14 7.00039 14C7.17539 14 7.35039 14 7.43789 13.9125C7.61289 13.825 12.6004 10.7625 12.6004 5.5125C12.6004 2.45 10.0629 0 7.00039 0C3.93789 0 1.40039 2.45 1.40039 5.5125C1.40039 10.7625 6.30039 13.825 6.56289 13.9125ZM7.00039 1.75C9.10039 1.75 10.8504 3.5 10.8504 5.6C10.8504 9.0125 8.13789 11.375 7.00039 12.1625C5.86289 11.375 3.15039 9.0125 3.15039 5.6C3.15039 3.4125 4.90039 1.75 7.00039 1.75Z" fill="#8A8A8A"/>
<path d="M9.88828 5.5125C9.88828 3.9375 8.57578 2.625 7.00078 2.625C5.42578 2.625 4.11328 3.9375 4.11328 5.5125C4.11328 7.0875 5.42578 8.4 7.00078 8.4C8.57578 8.4 9.88828 7.0875 9.88828 5.5125ZM5.86328 5.5125C5.86328 4.9 6.38828 4.375 7.00078 4.375C7.61328 4.375 8.13828 4.9 8.13828 5.5125C8.13828 6.125 7.61328 6.65 7.00078 6.65C6.38828 6.65 5.86328 6.125 5.86328 5.5125Z" fill="#8A8A8A"/>
</svg>
