<svg width="18" height="18" viewBox="0 0 18 18" fill="none" xmlns="http://www.w3.org/2000/svg">
<path d="M8.4373 17.8875C8.5498 18 8.7748 18 8.9998 18C9.2248 18 9.4498 18 9.5623 17.8875C9.7873 17.775 16.1998 13.8375 16.1998 7.0875C16.1998 3.15 12.9373 0 8.9998 0C5.0623 0 1.7998 3.15 1.7998 7.0875C1.7998 13.8375 8.0998 17.775 8.4373 17.8875ZM8.9998 2.25C11.6998 2.25 13.9498 4.5 13.9498 7.2C13.9498 11.5875 10.4623 14.625 8.9998 15.6375C7.5373 14.625 4.0498 11.5875 4.0498 7.2C4.0498 4.3875 6.2998 2.25 8.9998 2.25Z" fill="#2B73FF"/>
<path d="M12.7121 7.0875C12.7121 5.0625 11.0246 3.375 8.99961 3.375C6.97461 3.375 5.28711 5.0625 5.28711 7.0875C5.28711 9.1125 6.97461 10.8 8.99961 10.8C11.0246 10.8 12.7121 9.1125 12.7121 7.0875ZM7.53711 7.0875C7.53711 6.3 8.21211 5.625 8.99961 5.625C9.78711 5.625 10.4621 6.3 10.4621 7.0875C10.4621 7.875 9.78711 8.55 8.99961 8.55C8.21211 8.55 7.53711 7.875 7.53711 7.0875Z" fill="#2B73FF"/>
</svg>
