<svg width="29" height="30" viewBox="0 0 29 30" fill="none" xmlns="http://www.w3.org/2000/svg">
<path d="M25.4907 4.32946L2.54528 13.289C2.38342 13.353 2.24552 13.4658 2.15074 13.6118C2.05595 13.7578 2.00899 13.9297 2.01638 14.1036C2.02377 14.2775 2.08514 14.4448 2.19197 14.5822C2.2988 14.7196 2.44577 14.8203 2.61248 14.8704L6.93993 16.1337C7.40307 16.2701 7.82553 16.5184 8.17005 16.8567C8.51457 17.195 8.77058 17.6128 8.91551 18.0734L10.6223 23.485C10.6738 23.6504 10.7674 23.7996 10.894 23.9179C11.0206 24.0363 11.1758 24.1196 11.3443 24.1598C11.5129 24.2 11.689 24.1957 11.8553 24.1473C12.0217 24.0989 12.1726 24.008 12.2933 23.8837L14.6407 21.487C14.8258 21.2971 15.0735 21.1807 15.3378 21.1593C15.6022 21.1379 15.8654 21.2129 16.0787 21.3705L21.2259 25.1469C21.3923 25.2668 21.5859 25.3435 21.7892 25.3699C21.9926 25.3964 22.1993 25.3719 22.3908 25.2985C22.5823 25.2252 22.7526 25.1054 22.8863 24.9499C23.02 24.7944 23.1129 24.6081 23.1567 24.4078L27.072 5.67787C27.1176 5.46943 27.1057 5.25252 27.0376 5.05031C26.9695 4.84809 26.8478 4.66816 26.6855 4.52972C26.5231 4.39128 26.3262 4.29952 26.1158 4.26425C25.9053 4.22899 25.6893 4.25152 25.4907 4.32946ZM22.637 8.36125L14.896 15.2198C14.457 15.5999 14.1758 16.1304 14.1076 16.7071C14.092 16.8268 14.0362 16.9378 13.9494 17.0217C13.8625 17.1057 13.7497 17.1576 13.6295 17.1691C13.5092 17.1805 13.3886 17.1508 13.2875 17.0848C13.1864 17.0187 13.1106 16.9203 13.0727 16.8056L12.7188 15.6722C12.5959 15.2745 12.6084 14.8472 12.7543 14.4572C12.9002 14.0673 13.1713 13.7368 13.5252 13.5175L22.3772 8.03423C22.4227 8.0145 22.4735 8.01107 22.5212 8.02451C22.5689 8.03796 22.6105 8.06745 22.6389 8.10801C22.6673 8.14857 22.6809 8.19771 22.6773 8.24711C22.6737 8.29652 22.6532 8.34317 22.6191 8.37917L22.637 8.36125Z" fill="white"/>
</svg>
