<svg width="29" height="30" viewBox="0 0 29 30" fill="none" xmlns="http://www.w3.org/2000/svg">
<path d="M5.12984 12.5673C4.72947 12.5525 4.33236 12.4893 3.94718 12.3791C3.8205 12.3422 3.68638 12.3391 3.55811 12.37C3.42984 12.4009 3.31187 12.4648 3.2159 12.5553C3.11993 12.6458 3.04928 12.7599 3.01097 12.8861C2.97265 13.0124 2.968 13.1465 2.99747 13.2751C3.23331 14.2213 3.7278 15.0832 4.4256 15.7644C5.1234 16.4456 5.997 16.9192 6.94862 17.1322C6.51133 17.2554 6.05902 17.3172 5.60469 17.3158C5.49921 17.3156 5.39544 17.3425 5.3034 17.394C5.21135 17.4455 5.13414 17.5199 5.07921 17.61C5.02427 17.7 4.99348 17.8027 4.98979 17.9081C4.98611 18.0135 5.00965 18.1181 5.05816 18.2118C5.48557 19.0033 6.1138 19.6685 6.87971 20.1403C7.64563 20.6121 8.52225 20.874 9.42146 20.8996H9.86943C10.1071 20.8996 10.3349 20.994 10.503 21.1621C10.671 21.3301 10.7654 21.558 10.7654 21.7956C10.7654 22.0332 10.671 22.2611 10.503 22.4291C10.3349 22.5972 10.1071 22.6916 9.86943 22.6916C9.18912 22.6854 8.511 22.6134 7.84458 22.4765C7.41403 22.3741 6.96313 22.3974 6.54544 22.5437C5.77245 22.8277 4.96755 23.0157 4.14877 23.1037C3.99815 23.1127 3.85643 23.178 3.75183 23.2868C3.64724 23.3955 3.58743 23.5397 3.58432 23.6905C3.58384 23.805 3.6166 23.9172 3.67863 24.0134C3.74066 24.1096 3.82928 24.1858 3.93374 24.2326C5.74724 25.0333 7.70785 25.4467 9.69024 25.4466C19.1515 25.4466 24.3256 17.4099 24.3256 10.4394C24.3245 10.2351 24.368 10.033 24.4531 9.84731C24.5382 9.6616 24.6629 9.49673 24.8184 9.36424C25.3591 8.91003 25.8528 8.40277 26.2923 7.85008C26.3295 7.79994 26.3497 7.73915 26.3498 7.67668C26.3498 7.61421 26.3298 7.55337 26.2926 7.50316C26.2555 7.45294 26.2032 7.41601 26.1434 7.39781C26.0836 7.37961 26.0196 7.38112 25.9608 7.4021C25.4239 7.58576 24.8724 7.72363 24.3122 7.81424C24.2933 7.81601 24.2744 7.81175 24.2581 7.80206C24.2418 7.79237 24.2289 7.77776 24.2215 7.76033C24.214 7.7429 24.2123 7.72354 24.2165 7.70505C24.2207 7.68657 24.2307 7.6699 24.245 7.65745C24.9341 7.15919 25.4921 6.50128 25.8712 5.74011C25.9007 5.68499 25.9117 5.62183 25.9026 5.55997C25.8935 5.49811 25.8647 5.44083 25.8204 5.39661C25.7762 5.35239 25.7189 5.32359 25.6571 5.31445C25.5952 5.30531 25.5321 5.31634 25.4769 5.34589C24.9715 5.60033 24.4455 5.81163 23.9045 5.97753C23.6321 6.05741 23.3443 6.0702 23.0659 6.01481C22.7874 5.95943 22.5264 5.83752 22.3053 5.65947C21.4132 4.95193 20.3081 4.56672 19.1694 4.56641C18.0227 4.57684 16.912 4.9686 16.0125 5.67993C15.113 6.39126 14.4758 7.38171 14.2014 8.49516C14.1806 8.58792 14.1815 8.68421 14.204 8.77656C14.2265 8.86891 14.27 8.95483 14.3311 9.02764C14.3922 9.10044 14.4693 9.15818 14.5563 9.19636C14.6434 9.23453 14.7381 9.25213 14.833 9.24776C15.4958 9.22087 16.1551 9.13845 16.8041 9.00138C17.0132 8.95268 17.2326 8.97837 17.4248 9.07404C17.6169 9.1697 17.7697 9.32935 17.8569 9.52551C17.9054 9.64169 17.929 9.76679 17.926 9.89268C17.9229 10.0186 17.8934 10.1424 17.8393 10.2561C17.7852 10.3698 17.7077 10.4708 17.6119 10.5526C17.5162 10.6343 17.4042 10.695 17.2835 10.7306C15.8602 11.0794 14.3821 11.1449 12.9336 10.9232C9.5485 10.4504 6.43981 8.7953 4.15773 6.2508C4.0884 6.17114 3.99928 6.11118 3.89937 6.07698C3.79946 6.04277 3.69229 6.03552 3.58869 6.05597C3.48508 6.07642 3.38871 6.12384 3.30928 6.19344C3.22986 6.26304 3.17021 6.35236 3.13634 6.45239C2.94584 7.01207 2.84898 7.59933 2.84964 8.19054C2.84693 9.05017 3.05303 9.89761 3.45022 10.66C3.8474 11.4224 4.42379 12.0769 5.12984 12.5673Z" fill="white"/>
</svg>
