<?xml version="1.0" standalone="no"?>
<!DOCTYPE svg PUBLIC "-//W3C//DTD SVG 20010904//EN"
 "http://www.w3.org/TR/2001/REC-SVG-20010904/DTD/svg10.dtd">
<svg version="1.0" xmlns="http://www.w3.org/2000/svg"
 width="584.000000pt" height="584.000000pt" viewBox="0 0 584.000000 584.000000"
 preserveAspectRatio="xMidYMid meet">
<metadata>
Created by potrace 1.14, written by Peter Selinger 2001-2017
</metadata>
<g transform="translate(0.000000,584.000000) scale(0.100000,-0.100000)"
fill="#000000" stroke="none">
<path d="M2728 5824 c-76 -16 -141 -41 -134 -52 2 -4 7 -36 11 -72 4 -36 9
-81 12 -100 2 -19 6 -53 8 -75 2 -22 6 -62 9 -90 15 -116 22 -185 31 -272 3
-29 7 -70 10 -90 16 -114 15 -134 -3 -129 -70 21 -170 30 -337 31 -141 0 -249
-7 -295 -20 -8 -2 -27 -6 -41 -9 -58 -10 -225 -59 -238 -69 -8 -7 -15 -11 -15
-9 -1 2 -9 0 -18 -3 -34 -13 -20 -41 30 -60 105 -39 289 -185 370 -294 15 -20
33 -42 40 -49 6 -7 12 -15 12 -16 0 -2 -33 -16 -72 -31 -62 -24 -182 -88 -198
-105 -3 -3 -25 -19 -50 -35 -53 -36 -211 -190 -266 -260 -21 -27 -41 -52 -44
-55 -14 -14 -112 -172 -139 -226 -32 -63 -51 -134 -35 -134 5 0 36 23 69 52
98 84 345 235 345 211 0 -5 4 -3 8 2 7 10 153 61 202 70 14 3 39 8 55 12 106
24 249 32 424 23 62 -3 64 -4 78 -38 8 -19 12 -36 9 -39 -2 -3 -1 -16 5 -30 5
-13 11 -38 14 -56 25 -142 117 -384 219 -572 61 -114 76 -125 115 -84 23 25
160 293 185 364 10 28 24 64 31 80 16 36 48 134 51 155 2 8 7 31 13 50 6 19
19 68 28 109 21 86 9 81 173 82 319 3 615 -109 901 -339 43 -34 82 -62 88 -62
22 0 -11 100 -66 200 -31 56 -108 175 -123 190 -3 3 -18 22 -33 42 -28 38
-173 187 -218 224 -82 67 -249 164 -312 179 -15 4 -30 11 -33 17 -10 16 73
115 186 222 40 38 139 101 213 136 69 34 76 40 55 58 -28 22 -248 86 -338 98
-19 3 -46 7 -60 10 -41 10 -362 13 -410 4 -25 -4 -67 -11 -94 -15 -27 -3 -54
-7 -60 -8 -6 -1 -10 7 -10 18 2 27 14 153 19 190 8 55 16 129 21 180 2 28 6
64 9 81 2 17 7 57 10 90 3 32 8 70 10 84 4 19 16 144 17 170 1 27 -16 38 -87
56 -16 4 -37 9 -45 11 -45 12 -251 10 -312 -3z"/>
<path d="M4222 4714 c-72 -19 -147 -51 -207 -89 -52 -33 -125 -100 -125 -114
0 -4 33 -30 73 -56 127 -85 260 -198 387 -330 85 -89 106 -113 170 -195 19
-25 38 -46 42 -48 5 -2 8 -8 8 -14 0 -5 7 -16 15 -24 20 -20 136 -197 166
-254 13 -25 26 -47 29 -50 5 -5 53 -103 88 -180 l20 -45 -58 -60 c-59 -63
-108 -147 -131 -225 -18 -65 -20 -1093 -2 -1182 38 -187 192 -344 383 -391 51
-13 188 -15 235 -4 177 42 321 172 380 344 23 68 23 70 24 608 1 331 -2 561
-9 595 -27 147 -133 282 -282 359 -49 26 -52 30 -77 101 -14 41 -30 78 -36 82
-5 4 -7 8 -3 8 4 0 -2 21 -14 48 -45 103 -89 198 -98 212 -6 8 -16 26 -22 40
-21 43 -130 215 -165 260 -113 147 -197 238 -318 345 -102 91 -357 264 -399
270 -11 2 -45 -3 -74 -11z"/>
<path d="M1467 4691 c-26 -17 -50 -31 -52 -31 -7 0 -145 -96 -172 -120 -13
-11 -25 -20 -28 -20 -5 0 -43 -32 -100 -85 -18 -16 -48 -44 -66 -61 -70 -64
-269 -299 -269 -318 0 -4 -5 -12 -10 -19 -60 -69 -206 -354 -275 -537 l-48
-125 -61 -30 c-106 -52 -220 -194 -253 -315 -4 -14 -8 -275 -10 -580 -3 -606
-2 -626 54 -732 25 -47 114 -148 168 -188 29 -22 104 -56 148 -66 4 -1 8 -2
10 -4 4 -3 42 -9 97 -15 30 -3 56 -9 58 -14 5 -15 134 -206 153 -227 10 -11
19 -25 19 -31 0 -6 3 -13 8 -15 4 -1 29 -30 57 -63 63 -77 255 -269 320 -320
28 -22 52 -43 55 -46 21 -23 218 -157 315 -214 54 -32 261 -135 271 -135 3 0
24 -9 48 -19 119 -55 402 -137 533 -155 13 -2 50 -31 83 -65 75 -76 130 -105
240 -128 53 -12 893 -8 950 4 273 55 416 351 287 596 -35 66 -112 141 -180
175 -87 43 -137 47 -608 46 -404 0 -449 -2 -504 -19 -72 -22 -119 -50 -176
-105 -27 -26 -49 -38 -58 -35 -9 4 -31 8 -48 11 -66 8 -332 103 -448 160 -100
48 -337 191 -355 213 -3 3 -27 24 -55 45 -71 57 -272 260 -326 331 -26 33 -72
100 -104 148 l-57 88 30 67 c16 37 33 87 38 112 10 56 12 1055 3 1129 -15 108
-71 213 -158 294 -27 26 -46 49 -41 52 4 3 11 17 15 32 3 15 17 52 31 81 13
29 24 57 24 62 0 6 5 10 10 10 6 0 10 6 10 14 0 24 85 180 158 291 157 237
411 481 637 610 85 48 88 53 63 87 -47 67 -256 190 -343 203 -33 5 -48 1 -88
-24z"/>
</g>
</svg>
