<svg width="28" height="26" viewBox="0 0 28 26" fill="none" xmlns="http://www.w3.org/2000/svg">
<path d="M6.76667 14.166H7.32667V24.1877H6.76667C6.10787 24.1877 5.45552 24.0579 4.84687 23.8058C4.23822 23.5537 3.68519 23.1842 3.21935 22.7183C2.75351 22.2525 2.38398 21.6995 2.13187 21.0908C1.87976 20.4822 1.75 19.8298 1.75 19.171C1.75309 17.8425 2.28299 16.5695 3.22347 15.6312C4.16394 14.693 5.43818 14.166 6.76667 14.166Z" stroke="white" stroke-width="2" stroke-miterlimit="10"/>
<path d="M20.6855 14.166H21.2455C22.576 14.166 23.8521 14.6946 24.7929 15.6354C25.7337 16.5762 26.2622 17.8522 26.2622 19.1827C26.2622 20.5132 25.7337 21.7892 24.7929 22.73C23.8521 23.6708 22.576 24.1993 21.2455 24.1993H20.6855V14.166Z" stroke="white" stroke-width="2" stroke-miterlimit="10"/>
<path d="M3.97852 15.2274V11.8908C3.97851 9.23177 5.03399 6.68152 6.91308 4.80024C8.79218 2.91896 11.3412 1.86051 14.0002 1.85742C16.6592 1.86051 19.2082 2.91896 21.0873 4.80024C22.9664 6.68152 24.0219 9.23177 24.0218 11.8908V15.2274" stroke="white" stroke-width="2" stroke-miterlimit="10"/>
</svg>
