<svg width="28" height="25" viewBox="0 0 28 25" fill="none" xmlns="http://www.w3.org/2000/svg">
<path d="M10.25 14.25C13.0114 14.25 15.25 12.0114 15.25 9.25C15.25 6.48858 13.0114 4.25 10.25 4.25C7.48858 4.25 5.25 6.48858 5.25 9.25C5.25 12.0114 7.48858 14.25 10.25 14.25Z" fill="white"/>
<path d="M10.25 16.75C6.9125 16.75 0.25 18.425 0.25 21.75V24.25H20.25V21.75C20.25 18.425 13.5875 16.75 10.25 16.75ZM19.95 4.7L17.85 6.8125C18.9 8.2875 18.9 10.2 17.85 11.675L19.95 13.7875C22.475 11.2625 22.475 7.45 19.95 4.7ZM24.0875 0.5L22.05 2.5375C25.5125 6.3125 25.5125 11.9875 22.05 15.9625L24.0875 18C28.9625 13.1375 28.975 5.5625 24.0875 0.5Z" fill="white"/>
</svg>
