<svg width="88" height="88" viewBox="0 0 88 88" fill="none" xmlns="http://www.w3.org/2000/svg">
<path d="M1.375 44V64.9C1.375 69.575 5.0875 73.2875 9.625 73.2875H78.375C82.9125 73.2875 86.625 69.575 86.625 64.9V44H1.375Z" fill="#CE1126"/>
<path d="M44 44L78.375 73.2875C82.9125 73.2875 86.625 69.575 86.625 64.9V44H44Z" fill="#B70B25"/>
<path d="M78.375 14.7125H9.625C5.0875 14.7125 1.375 18.425 1.375 23.1V44H86.625V23.1C86.625 18.425 82.9125 14.7125 78.375 14.7125Z" fill="#00209F"/>
<path d="M78.375 14.7125H9.625L44 44H86.625V23.1C86.625 18.425 82.9125 14.7125 78.375 14.7125Z" fill="#001D92"/>
<path d="M86.625 64.9C86.625 69.575 82.9125 73.2875 78.375 73.2875H9.625C5.0875 73.2875 1.375 69.575 1.375 64.9" fill="#9B0421"/>
<path d="M9.625 14.7125H78.375C82.9125 14.7125 86.625 18.425 86.625 23.1V38.3625" fill="#001877"/>
<path d="M34.1064 35.75H53.7648V52.1936H34.1064V35.75Z" fill="white"/>
<path d="M53.7648 49.9183C51.2898 48.6618 47.938 47.8759 44.0215 47.8759C40.1083 47.8759 36.5815 48.6618 34.1064 49.9183V52.1936H53.7648V49.9183Z" fill="#006A16"/>
<path d="M39.9235 41.8245L41.8471 43.9891L41.606 45.3463L41.1899 45.1102L40.8151 46.5269H40.7177L40.541 47.2749L37.2734 46.9991L37.3527 44.6677L38.1403 44.8939L38.236 42.7177L39.3803 43.4954L39.4381 42.1778L39.9235 41.8245Z" fill="#00209F"/>
<path d="M44.0212 46.0548V49.3604L41.5445 48.6322L40.9138 47.7076L40.4812 47.3922L40.7173 46.5567L41.0904 45.1103H41.6617L41.8021 43.8902L44.0212 46.0548ZM36.8999 44.5589C37.1954 44.2055 37.7469 44.4416 37.765 44.5589C37.7849 44.6777 37.5487 44.6563 37.3324 44.8544C37.1161 45.0509 37.1756 45.6602 36.8008 45.5826C36.4276 45.5033 36.8999 44.5589 36.8999 44.5589ZM38.2356 42.7179C38.617 42.4603 39.0826 42.84 39.0678 42.9589C39.0529 43.0778 38.8317 42.9936 38.5708 43.1224C38.3083 43.2512 38.196 43.8538 37.8575 43.6739C37.5207 43.4939 38.2356 42.7179 38.2356 42.7179ZM39.8108 41.5918C40.2219 41.3854 40.6347 41.8229 40.605 41.9385C40.5753 42.0541 40.2863 41.8494 40.0106 41.9435C39.7332 42.0376 39.6242 42.7129 39.3122 42.49C39.0001 42.2687 39.8108 41.5918 39.8108 41.5918Z" fill="#D21C33"/>
<path d="M38.9683 40.6736L40.2446 41.4513L40.1043 41.8244L43.5502 45.6402V45.9357L39.9689 41.9218L39.5016 41.8442L38.9683 40.6736ZM37.1356 41.8244C37.1356 41.8244 38.4152 42.3165 38.4152 42.3759C38.4152 42.4353 38.6496 42.8283 38.6496 42.8283L43.3124 46.6061L43.1754 46.7844L38.5506 43.0066L37.8819 42.7111L37.1356 41.8244ZM35.7783 43.7628C35.7783 43.7628 37.2544 43.9692 37.2742 44.0287C37.2941 44.0881 37.3931 44.4233 37.3931 44.4233L42.8022 47.3739L42.5661 47.5126L37.2941 44.5983L36.6848 44.5587L35.7783 43.7628Z" fill="#F1B517"/>
<path d="M37.0583 46.5667L42.6177 47.2453L42.091 47.8793L41.2671 47.9619L41.8829 48.7891L41.5857 49.1243L40.7585 48.2194C40.7585 48.2194 40.5026 49.537 39.3815 49.537C38.2604 49.537 37.9037 48.4159 37.9037 48.0411C37.9037 47.6663 38.0028 47.4715 38.0028 47.4715H36.9395L37.0583 46.5667Z" fill="#F1B517"/>
<path d="M48.0495 41.7056L46.04 44.0881L46.1226 45.4635L46.6394 45.1102L47.0126 46.5269H47.1116L47.2883 47.2748L50.5542 46.9991L50.475 44.6677L49.689 44.8939L49.5916 42.7177L48.449 43.4954L48.3879 42.1778L48.0495 41.7056Z" fill="#00209F"/>
<path d="M44.0215 46.0548V49.3604L46.3925 48.6322L46.9688 47.7076L47.3749 47.3922L47.1256 46.5567L46.7376 45.1103L46.2984 45.4373L46.1465 44.0883L44.0215 46.0548ZM50.9282 44.5589C50.631 44.2055 50.0795 44.4416 50.0613 44.5589C50.0415 44.6777 50.2793 44.6563 50.4956 44.8544C50.7119 45.0509 50.6541 45.6602 51.0272 45.5826C51.4004 45.5033 50.9282 44.5589 50.9282 44.5589ZM49.5924 42.7179C49.211 42.4603 48.747 42.84 48.7602 42.9589C48.7751 43.0778 48.9963 42.9936 49.2589 43.1224C49.5214 43.2512 49.632 43.8538 49.9722 43.6739C50.3073 43.4939 49.5924 42.7179 49.5924 42.7179ZM48.0189 41.5918C47.6061 41.3854 47.1966 41.8229 47.2247 41.9385C47.2544 42.0541 47.5417 41.8494 47.8174 41.9435C48.0948 42.0376 48.2055 42.7129 48.5175 42.49C48.8296 42.2687 48.0189 41.5918 48.0189 41.5918Z" fill="#D21C33"/>
<path d="M48.8591 40.6736L47.5844 41.4513L47.8304 41.8244L44.4951 45.6402V45.9357L47.9674 41.9218L48.3819 41.8442L48.8591 40.6736ZM50.6918 41.8244C50.6918 41.8244 49.4138 42.3165 49.4138 42.3759C49.4138 42.4353 49.1777 42.8283 49.1777 42.8283L44.5149 46.6061L44.6536 46.7844L49.2768 43.0066L49.9439 42.7111L50.6918 41.8244ZM52.049 43.7628C52.049 43.7628 50.5729 43.9692 50.5548 44.0287C50.5333 44.0881 50.4375 44.4233 50.4375 44.4233L45.0268 47.3739L45.2629 47.5126L50.535 44.6L51.1459 44.5603L52.049 43.7628Z" fill="#F1B517"/>
<path d="M50.7706 46.5667L45.2129 47.2453L45.7396 47.8793L46.5619 47.9619L45.946 48.7891L46.2448 49.1243L47.0721 48.2194C47.0721 48.2194 47.328 49.537 48.4491 49.537C49.5719 49.537 49.9252 48.4159 49.9252 48.0428C49.9252 47.668 49.8278 47.4731 49.8278 47.4731H50.8895L50.7706 46.5667Z" fill="#F1B517"/>
<path d="M52.0377 50.7768C52.0377 50.7768 51.0635 50.8115 50.0415 50.5903C49.0194 50.3674 48.8428 49.9678 48.3986 50.0569C47.9544 50.1461 46.9241 50.5275 46.0804 50.6365C45.235 50.7422 44.0214 50.7785 44.0214 50.7785C44.0214 50.7785 42.9053 50.7438 42.0599 50.6365C41.2145 50.5275 40.2816 50.1461 39.8358 50.0569C39.3917 49.9678 39.2134 50.369 38.1896 50.5903C37.1676 50.8132 36.1885 50.7768 36.1885 50.7768L36.456 51.2491L36.1885 51.4802C38.5017 51.5232 39.57 50.7768 39.57 50.7768C40.7258 51.543 44.0214 51.5644 44.0214 51.5644C44.0214 51.5644 47.4162 51.543 48.572 50.7768C48.572 50.7768 49.6881 51.5232 51.9997 51.4802L51.7554 51.2491L52.0377 50.7768Z" fill="white"/>
<path d="M44.4955 43.7628C44.4955 46.223 44.2809 48.2192 44.0134 48.2192C43.7475 48.2192 43.5312 46.223 43.5312 43.7628C43.5312 41.301 43.7475 39.3064 44.0134 39.3064C44.2809 39.3064 44.4955 41.301 44.4955 43.7628Z" fill="#F1B517"/>
<path d="M43.0781 47.9436H44.967V49.8341H43.0781V47.9436Z" fill="#D21C33"/>
<path d="M45.0842 47.8246C45.0842 48.0426 44.6318 48.2176 44.0704 48.2176C43.5107 48.2176 43.0566 48.0409 43.0566 47.8246C43.0566 47.6083 43.5107 47.4316 44.0704 47.4316C44.6318 47.4316 45.0842 47.6083 45.0842 47.8246Z" fill="white"/>
<path d="M45.0842 49.7136C45.0842 49.9316 44.6318 50.1066 44.0704 50.1066C43.5107 50.1066 43.0566 49.9316 43.0566 49.7136C43.0566 49.4957 43.5107 49.3207 44.0704 49.3207C44.6318 49.3207 45.0842 49.4957 45.0842 49.7136Z" fill="#D21C33"/>
<path d="M48.1631 38.4793C47.785 38.0269 46.8124 38.0467 46.152 38.0269C45.4932 38.0071 45.1597 38.2432 45.4552 37.9295C45.7508 37.6158 46.2065 37.695 46.687 37.6736C47.1691 37.6537 47.2533 37.596 46.9577 37.4391C46.4979 37.1901 45.96 37.1274 45.4552 37.2641C44.7799 37.4374 44.3539 37.8585 43.994 37.9311C43.634 37.8601 43.1833 37.4374 42.5079 37.2641C41.9989 37.1267 41.4565 37.1893 40.9922 37.4391C40.6966 37.596 40.7759 37.6537 41.258 37.6736C41.7402 37.6934 42.1909 37.6141 42.4865 37.9295C42.782 38.2448 42.4468 38.0071 41.788 38.0269C41.1292 38.0467 40.1551 38.0269 39.777 38.4793C39.3989 38.9317 40.1055 38.6362 40.4804 38.5767C40.8535 38.5173 41.405 38.4991 41.405 38.4991C41.405 38.4991 40.4804 38.7732 40.2244 39.1282C39.9685 39.4815 40.302 39.7969 40.7759 39.5212C41.2481 39.2454 41.9763 38.8723 42.3692 38.8327C42.3692 38.8327 41.3455 39.2586 40.8931 39.6268C40.4407 39.995 40.9146 39.9554 41.258 39.9554C41.6015 39.9554 41.9548 39.8184 42.2504 39.6004C42.5459 39.3841 42.0555 40.033 41.9746 40.4475C41.897 40.8602 42.5063 40.7628 42.6153 40.4475C42.7226 40.1321 43.0759 39.503 43.0759 39.503C43.0759 39.503 42.9207 40.4078 42.9405 41.0188C42.9604 41.6297 43.1618 41.6676 43.3186 41.3919C43.4755 41.1162 44.0204 41.5554 44.0204 41.5554C44.0204 41.5554 44.5157 41.1162 44.6726 41.3919C44.8311 41.6676 44.9797 41.628 44.9995 41.0188C45.0193 40.4095 44.8625 39.503 44.8625 39.503C44.8625 39.503 45.2158 40.1321 45.3248 40.4475C45.4321 40.7628 46.043 40.8602 45.9638 40.4475C45.8862 40.0347 45.3941 39.3841 45.6897 39.6004C45.9852 39.8167 46.3386 39.9554 46.682 39.9554C47.0271 39.9554 47.4993 39.995 47.0486 39.6268C46.5961 39.2586 45.5724 38.8327 45.5724 38.8327C45.9671 38.8723 46.6936 39.2454 47.1658 39.5212C47.638 39.7969 47.9715 39.4815 47.7156 39.1282C47.4597 38.7732 46.5351 38.4991 46.5351 38.4991C46.5351 38.4991 47.0865 38.5189 47.4613 38.5767C47.8345 38.6378 48.5412 38.9317 48.1631 38.4793Z" fill="#006A16"/>
</svg>
