<svg width="86" height="58" viewBox="0 0 86 58" fill="none" xmlns="http://www.w3.org/2000/svg">
<path d="M0.375 38.625V49.9C0.375 54.575 4.0875 57.875 8.625 57.875H77.375C81.9125 57.875 85.625 54.575 85.625 49.9V38.625H0.375Z" fill="#359846"/>
<path d="M77.375 0.125H8.625C4.0875 0.125 0.375 3.425 0.375 8.1V19.375H85.625V8.1C85.625 3.425 81.9125 0.125 77.375 0.125Z" fill="#EA8634"/>
<path d="M85.625 19.375H0.375V38.625H85.625V19.375Z" fill="#FCFBF0"/>
<path d="M77.0998 57.875C81.6373 57.875 85.6248 54.575 85.6248 49.9V38.625H54.5498L77.0998 57.875Z" fill="#21872F"/>
<path d="M77.375 0.125H8.625L31.45 19.375H85.625V8.1C85.625 3.425 81.9125 0.125 77.375 0.125Z" fill="#E27423"/>
<path d="M54.6875 38.625H85.625V19.375H31.3125L54.6875 38.625Z" fill="#F7F4E2"/>
<path d="M77.375 0.125H8.625L72.2875 19.375H85.625V8.1C85.625 3.425 81.9125 0.125 77.375 0.125Z" fill="#D86619"/>
<path d="M85.6246 23.225V19.375H71.5996L85.6246 23.225Z" fill="#F2E9C2"/>
<path d="M85.625 49.7625C85.625 54.7125 81.9125 57.875 77.375 57.875H8.625C4.0875 57.875 0.375 54.3 0.375 49.625" fill="#167A20"/>
<path d="M43.0004 20.3375C38.1879 20.3375 34.3379 24.1875 34.3379 29C34.3379 33.8125 38.1879 37.6625 43.0004 37.6625C47.8129 37.6625 51.6629 33.8125 51.6629 29C51.6629 24.1875 47.8129 20.3375 43.0004 20.3375ZM50.1504 29.9625C50.1504 30.1 50.2879 30.375 50.4254 30.375C50.2879 30.7875 50.2879 31.2 50.1504 31.6125C50.0129 31.475 49.7379 31.6125 49.6004 31.75C49.4629 31.8875 49.6004 32.1625 49.7379 32.3C49.6004 32.7125 49.3254 32.9875 49.1879 33.4C49.0504 33.2625 48.7754 33.2625 48.6379 33.5375C48.5004 33.675 48.5004 33.95 48.6379 34.0875C48.5004 34.225 48.3629 34.3625 48.2254 34.5L45.2004 31.0625L43.9629 30.1L44.1004 29.9625L45.3379 30.925L49.3254 32.9875L45.7504 30.2375L44.3754 29.6875C44.3754 29.55 44.3754 29.55 44.5129 29.4125L45.8879 29.9625L50.2879 30.925L46.0254 29.55L44.5129 29.275C44.5129 29.1375 44.5129 29.1375 44.5129 29L46.0254 29.1375L50.5629 28.8625L46.0254 28.5875L44.5129 28.725C44.5129 28.5875 44.5129 28.5875 44.5129 28.45L46.0254 28.175L50.2879 26.8L45.8879 27.7625L44.5129 28.3125C44.5129 28.175 44.5129 28.175 44.3754 28.0375L45.7504 27.4875L49.6004 25.0125L45.6129 27.075L44.3754 28.0375L44.2379 27.9L45.4754 26.9375L48.5004 23.5C48.6379 23.6375 48.7754 23.775 48.9129 23.9125C48.7754 24.05 48.7754 24.325 48.9129 24.4625C49.0504 24.6 49.3254 24.6 49.4629 24.6C49.7379 24.875 49.8754 25.2875 50.0129 25.7C49.8754 25.8375 49.7379 25.975 49.8754 26.25C50.0129 26.3875 50.1504 26.525 50.4254 26.3875C50.5629 26.8 50.7004 27.2125 50.7004 27.625C50.5629 27.625 50.4254 27.9 50.4254 28.0375C50.4254 28.175 50.7004 28.45 50.8379 28.3125C50.8379 28.45 50.8379 28.725 50.8379 28.8625C50.8379 29 50.8379 29.275 50.8379 29.4125C50.2879 29.55 50.1504 29.6875 50.1504 29.9625ZM38.1879 23.225C38.3254 23.3625 38.6004 23.3625 38.7379 23.225C38.8754 23.0875 38.8754 22.8125 38.8754 22.675C39.1504 22.4 39.5629 22.2625 39.9754 22.125C40.1129 22.2625 40.2504 22.4 40.5254 22.2625C40.6629 22.125 40.8004 21.9875 40.6629 21.7125C41.0754 21.575 41.4879 21.4375 41.9004 21.4375C41.9004 21.575 42.1754 21.7125 42.3129 21.7125C42.4504 21.7125 42.7254 21.4375 42.5879 21.3C42.7254 21.3 43.0004 21.3 43.1379 21.3C43.2754 21.3 43.5504 21.3 43.6879 21.3C43.6879 21.4375 43.8254 21.7125 43.9629 21.7125C44.1004 21.7125 44.3754 21.575 44.3754 21.4375C44.7879 21.575 45.2004 21.575 45.6129 21.7125C45.4754 21.85 45.6129 22.125 45.7504 22.2625C45.8879 22.4 46.1629 22.2625 46.3004 22.125C46.7129 22.2625 46.9879 22.5375 47.4004 22.675C47.2629 22.8125 47.2629 23.0875 47.5379 23.225C47.6754 23.3625 47.9504 23.3625 48.0879 23.225C48.2254 23.3625 48.3629 23.5 48.5004 23.6375L45.0629 26.6625L44.1004 27.9L43.9629 27.7625L44.9254 26.525L46.9879 22.5375L44.2379 26.25L43.6879 27.625C43.5504 27.625 43.5504 27.625 43.4129 27.4875L43.9629 26.1125L44.9254 21.7125L43.5504 25.975L43.2754 27.4875C43.1379 27.4875 43.1379 27.4875 43.0004 27.4875L43.1379 25.975L43.0004 21.4375L42.7254 25.975L42.8629 27.4875C42.7254 27.4875 42.7254 27.4875 42.5879 27.4875L42.3129 25.975L40.9379 21.7125L41.9004 26.1125L42.4504 27.4875C42.3129 27.4875 42.3129 27.4875 42.1754 27.625L41.6254 26.25L39.1504 22.4L41.2129 26.3875L42.1754 27.625L42.0379 27.7625L41.0754 26.525L37.6379 23.5C37.7754 23.5 37.9129 23.3625 38.1879 23.225ZM37.6379 34.3625C37.5004 34.225 37.3629 34.0875 37.2254 33.95C37.3629 33.8125 37.3629 33.5375 37.2254 33.4C37.0879 33.2625 36.8129 33.2625 36.6754 33.2625C36.4004 32.9875 36.2629 32.575 36.1254 32.1625C36.2629 32.025 36.4004 31.8875 36.2629 31.6125C36.1254 31.475 35.9879 31.3375 35.7129 31.475C35.5754 31.0625 35.4379 30.65 35.4379 30.2375C35.5754 30.2375 35.7129 29.9625 35.7129 29.825C35.7129 29.6875 35.4379 29.4125 35.3004 29.55C35.3004 29.4125 35.3004 29.1375 35.3004 29C35.3004 28.8625 35.3004 28.5875 35.3004 28.45C35.4379 28.45 35.7129 28.3125 35.7129 28.175C35.7129 28.0375 35.5754 27.7625 35.4379 27.7625C35.5754 27.35 35.5754 26.9375 35.7129 26.525C35.8504 26.6625 36.1254 26.525 36.2629 26.3875C36.4004 26.25 36.2629 25.975 36.1254 25.8375C36.2629 25.425 36.5379 25.15 36.6754 24.7375C36.8129 24.875 37.0879 24.875 37.2254 24.6C37.3629 24.325 37.3629 24.1875 37.2254 24.05C37.3629 23.9125 37.5004 23.775 37.6379 23.6375L40.6629 27.075L41.9004 28.0375L41.7629 28.175L40.5254 27.2125L36.5379 25.15L40.3879 27.625L41.7629 28.175C41.7629 28.3125 41.7629 28.3125 41.6254 28.45L40.2504 27.9L35.8504 26.9375L40.1129 28.3125L41.6254 28.5875C41.6254 28.725 41.6254 28.725 41.6254 28.8625L40.1129 28.725L35.4379 29L39.9754 29.275L41.4879 29.1375C41.4879 29.275 41.4879 29.275 41.4879 29.4125L39.9754 29.6875L35.7129 31.0625L40.1129 30.1L41.4879 29.55C41.4879 29.6875 41.4879 29.6875 41.6254 29.825L40.2504 30.375L36.4004 32.85L40.3879 30.7875L41.6254 29.825L41.7629 29.9625L40.5254 30.925L37.6379 34.3625ZM42.4504 36.5625C42.4504 36.425 42.3129 36.15 42.1754 36.15C42.0379 36.15 41.7629 36.2875 41.7629 36.425C41.3504 36.2875 40.9379 36.2875 40.5254 36.15C40.6629 36.0125 40.5254 35.7375 40.3879 35.6C40.2504 35.4625 39.9754 35.6 39.8379 35.7375C39.4254 35.6 39.1504 35.325 38.7379 35.1875C38.8754 35.05 38.8754 34.775 38.6004 34.6375C38.4629 34.5 38.1879 34.5 38.0504 34.6375C37.9129 34.5 37.7754 34.3625 37.6379 34.225L41.0754 31.2L42.0379 29.9625L42.1754 30.1L41.2129 31.3375L39.1504 35.325L41.6254 31.475L42.1754 30.1C42.3129 30.1 42.3129 30.1 42.4504 30.2375L41.9004 31.6125L40.9379 36.0125L42.3129 31.75L42.5879 30.2375C42.7254 30.2375 42.7254 30.2375 42.8629 30.2375L42.7254 31.75L43.0004 36.2875L43.2754 31.75L43.1379 30.2375C43.2754 30.2375 43.2754 30.2375 43.4129 30.2375L43.6879 31.75L45.0629 36.0125L44.1004 31.6125L43.5504 30.2375C43.6879 30.2375 43.6879 30.2375 43.8254 30.1L44.3754 31.475L46.8504 35.325L44.7879 31.3375L43.8254 30.1L43.9629 29.9625L44.9254 31.2L48.3629 34.225C48.2254 34.3625 48.0879 34.5 47.9504 34.6375C47.8129 34.5 47.5379 34.5 47.4004 34.6375C47.2629 34.775 47.2629 35.05 47.2629 35.1875C46.9879 35.4625 46.5754 35.6 46.1629 35.7375C46.0254 35.6 45.8879 35.4625 45.6129 35.6C45.3379 35.7375 45.3379 35.875 45.4754 36.15C45.0629 36.2875 44.6504 36.425 44.2379 36.425C44.2379 36.2875 43.9629 36.15 43.8254 36.15C43.6879 36.15 43.4129 36.425 43.5504 36.5625C43.4129 36.5625 43.1379 36.5625 43.0004 36.5625C42.8629 36.5625 42.5879 36.5625 42.4504 36.5625Z" fill="#7D7DBC"/>
<path d="M44.9258 30.65L45.3383 31.0625V30.925L44.9258 30.65Z" fill="#6060B2"/>
<path d="M43.0004 20.3375C40.3879 20.3375 38.0504 21.575 36.4004 23.3625L37.2254 24.05C37.3629 23.9125 37.5004 23.775 37.6379 23.6375C37.7754 23.5 37.9129 23.3625 38.0504 23.225C38.1879 23.3625 38.4629 23.3625 38.6004 23.225C38.7379 23.0875 38.7379 22.8125 38.7379 22.675C38.8754 22.5375 39.1504 22.5375 39.2879 22.4L41.3504 26.3875L42.3129 27.625L42.1754 27.7625L41.2129 26.525L37.7754 23.5L40.6629 26.8L41.0754 27.075L41.9004 27.7625L44.2379 29.6875L44.3754 29.55L45.6129 30.5125L49.6004 32.575C49.4629 32.7125 49.4629 32.9875 49.3254 33.125C49.1879 32.9875 48.9129 32.9875 48.7754 33.2625C48.6379 33.4 48.6379 33.675 48.7754 33.8125L49.6004 34.5C50.8379 32.9875 51.6629 31.0625 51.6629 28.8625C51.6629 24.1875 47.8129 20.3375 43.0004 20.3375ZM42.3129 27.625L41.7629 26.25L39.2879 22.5375C39.4254 22.4 39.5629 22.2625 39.8379 22.2625C39.9754 22.4 40.1129 22.5375 40.3879 22.4C40.5254 22.2625 40.6629 22.125 40.5254 21.85C40.6629 21.85 40.9379 21.7125 41.0754 21.7125L42.0379 26.1125L42.5879 27.4875C42.4504 27.625 42.4504 27.625 42.3129 27.625ZM43.1379 27.4875L43.2754 25.975L43.0004 21.4375L42.7254 25.975L42.8629 27.4875C42.7254 27.4875 42.7254 27.4875 42.5879 27.4875L42.3129 25.975L40.9379 21.7125C41.0754 21.7125 41.3504 21.575 41.4879 21.575C41.4879 21.7125 41.7629 21.85 41.9004 21.85C42.0379 21.85 42.3129 21.575 42.1754 21.4375C42.3129 21.4375 42.5879 21.4375 42.7254 21.4375C42.8629 21.4375 43.1379 21.4375 43.2754 21.4375C43.2754 21.575 43.4129 21.85 43.5504 21.85C43.6879 21.85 43.9629 21.7125 43.9629 21.575C44.1004 21.575 44.3754 21.7125 44.5129 21.7125L43.1379 25.975L42.8629 27.4875C43.2754 27.4875 43.1379 27.4875 43.1379 27.4875ZM43.4129 27.625L43.9629 26.25L44.9254 21.85C45.0629 21.85 45.3379 21.9875 45.4754 21.9875C45.3379 22.125 45.4754 22.4 45.6129 22.5375C45.7504 22.675 46.0254 22.5375 46.1629 22.4C46.3004 22.5375 46.5754 22.5375 46.7129 22.675L44.2379 26.25L43.6879 27.625C43.5504 27.625 43.5504 27.625 43.4129 27.625ZM49.6004 31.75C49.4629 31.8875 49.6004 32.1625 49.7379 32.3C49.6004 32.4375 49.6004 32.7125 49.4629 32.85L45.7504 30.2375L44.3754 29.6875C44.3754 29.55 44.3754 29.55 44.5129 29.4125L45.8879 29.9625L50.2879 30.925C50.2879 31.0625 50.1504 31.3375 50.1504 31.475C49.8754 31.475 49.7379 31.6125 49.6004 31.75ZM50.5629 28.45C50.5629 28.5875 50.5629 28.8625 50.5629 29C50.5629 29.1375 50.5629 29.4125 50.5629 29.55C50.4254 29.55 50.1504 29.6875 50.1504 29.825C50.1504 29.9625 50.2879 30.2375 50.4254 30.2375C50.4254 30.375 50.2879 30.65 50.2879 30.7875L46.0254 29.4125L44.5129 29.1375C44.5129 29 44.5129 29 44.5129 28.8625L46.0254 29L50.5629 28.725L46.0254 28.45L44.5129 28.5875C44.5129 28.45 44.5129 28.45 44.5129 28.3125L46.0254 28.0375L50.2879 26.6625C50.2879 26.8 50.4254 27.075 50.4254 27.2125C50.2879 27.2125 50.1504 27.4875 50.1504 27.625C50.1504 28.3125 50.2879 28.45 50.5629 28.45ZM49.6004 26.25C49.7379 26.3875 49.8754 26.525 50.1504 26.3875C50.1504 26.525 50.2879 26.8 50.2879 26.9375L45.8879 27.9L44.5129 28.45C44.5129 28.3125 44.5129 28.3125 44.3754 28.175L45.7504 27.625L49.4629 25.15C49.6004 25.2875 49.7379 25.425 49.7379 25.7C49.6004 25.8375 49.4629 26.1125 49.6004 26.25ZM49.4629 25.2875L45.4754 27.35L44.2379 28.3125L44.1004 28.175L45.3379 27.2125L48.3629 23.775L44.9254 26.8L43.9629 28.0375L43.8254 27.9L44.7879 26.6625L46.8504 22.675C46.9879 22.8125 47.2629 22.8125 47.4004 22.95C47.2629 23.0875 47.2629 23.3625 47.5379 23.5C47.6754 23.6375 47.9504 23.6375 48.0879 23.5C48.2254 23.6375 48.3629 23.775 48.5004 23.9125C48.6379 24.05 48.7754 24.1875 48.9129 24.325C48.7754 24.4625 48.7754 24.7375 48.9129 24.875C49.0504 25.0125 49.3254 25.0125 49.4629 25.0125C49.3254 24.875 49.4629 25.0125 49.4629 25.2875Z" fill="#6060B2"/>
</svg>
