<svg width="86" height="58" viewBox="0 0 86 58" fill="none" xmlns="http://www.w3.org/2000/svg">
<path d="M77.375 0.125H8.625C4.0875 0.125 0.375 3.425 0.375 8.1V29V49.9C0.375 54.575 4.0875 57.875 8.625 57.875H77.375C81.9125 57.875 85.625 54.575 85.625 49.9V29V8.1C85.625 3.425 81.9125 0.125 77.375 0.125Z" fill="#0C723E"/>
<path d="M77.375 0.125H8.625L43 29.275L76.825 57.875C81.3625 57.875 85.625 54.575 85.625 49.9V29V8.1C85.625 3.425 81.9125 0.125 77.375 0.125Z" fill="#085E2F"/>
<path d="M85.625 49.7625C85.625 54.4375 81.9125 57.875 77.375 57.875H8.625C4.0875 57.875 0.375 54.3 0.375 49.625" fill="#C11414"/>
<path d="M8.625 0.125H77.375C81.9125 0.125 85.625 3.425 85.625 8.1V23.5" fill="#054C23"/>
<path d="M23.75 49.625V57.875H77.375C81.9125 57.875 85.625 55.125 85.625 49.625H23.75Z" fill="#054C23"/>
<path d="M23.75 0.125H8.625C4.0875 0.125 0.375 3.425 0.375 8.1V29V49.9C0.375 54.575 4.0875 57.875 8.625 57.875H23.75V0.125Z" fill="#F3F4F5"/>
<path d="M23.75 0.125H8.625L23.75 12.9125V0.125Z" fill="#E0E0E0"/>
<path d="M23.75 0.125H8.625L23.75 4.6625V0.125Z" fill="#CCCCCC"/>
<path d="M0.375 29V49.9C0.375 54.575 4.0875 57.875 8.625 57.875H23.75V29H0.375Z" fill="#E0E0E0"/>
<path d="M0.375 49.625C0.375 55.125 4.0875 57.875 8.625 57.875H23.75V49.625H0.375Z" fill="#CCCCCC"/>
<path d="M55.9247 34.3625C54.1372 36.0125 51.7997 36.975 49.5997 37.25C46.4372 37.525 43.1372 36.425 40.7997 33.95C36.8122 29.6875 36.9497 22.8125 41.3497 18.825C42.8622 17.45 44.5122 16.625 46.2997 16.2125C42.9997 16.075 39.6997 17.3125 37.0872 19.65C31.8622 24.6 31.5872 32.7125 36.3997 37.9375C39.5622 41.375 44.2372 42.75 48.6372 41.7875C50.8372 41.375 53.0372 40.275 54.8247 38.625C57.4372 36.15 58.8122 32.9875 58.9497 29.6875C58.2622 31.3375 57.2997 32.9875 55.9247 34.3625Z" fill="#F3F4F5"/>
<path d="M51.7998 36.7001L54.2748 38.7626C54.2748 38.7626 54.5498 38.4876 54.6873 38.3501C57.2998 35.8751 58.6748 32.7126 58.8123 29.4126C58.2623 31.2001 57.2998 32.8501 55.7873 34.2251C54.6873 35.4626 53.3123 36.2876 51.7998 36.7001Z" fill="#C3CAD1"/>
<path d="M34.75 22.2625L37.9125 25.0125C38.325 22.8125 39.425 20.3375 41.2125 18.6875C42.725 17.3125 44.375 16.4875 46.1625 16.075C42.8625 15.9375 39.5625 17.175 36.95 19.5125C36.125 20.3375 35.4375 21.3 34.75 22.2625Z" fill="#C3CAD1"/>
<path d="M52.3496 23.6375L52.6246 26.3875L53.9996 23.9125L56.7496 24.6L54.9621 22.5375L56.3371 20.0625L53.7246 21.1625L51.9371 18.9625L52.0746 21.85L49.5996 22.95L52.3496 23.6375Z" fill="#CCCCCC"/>
</svg>
