<svg width="86" height="60" viewBox="0 0 86 60" fill="none" xmlns="http://www.w3.org/2000/svg">
<path d="M0.375 30V50.9C0.375 55.575 4.0875 59.2875 8.625 59.2875H77.375C81.9125 59.2875 85.625 55.575 85.625 50.9V30H0.375Z" fill="#CE1126"/>
<path d="M43 30L77.375 59.2875C81.9125 59.2875 85.625 55.575 85.625 50.9V30H43Z" fill="#BA0822"/>
<path d="M77.375 0.712891H8.625C4.0875 0.712891 0.375 4.42539 0.375 9.10039V30.0004H85.625V9.10039C85.625 4.42539 81.9125 0.712891 77.375 0.712891Z" fill="#0038A8"/>
<path d="M77.375 0.712891H8.625L43 30.0004H85.625V9.10039C85.625 4.42539 81.9125 0.712891 77.375 0.712891Z" fill="#033789"/>
<path d="M85.625 50.9004C85.625 55.5754 81.9125 59.2879 77.375 59.2879H8.625C4.0875 59.2879 0.375 55.5754 0.375 50.9004" fill="#A0001F"/>
<path d="M8.625 0.712891H77.375C81.9125 0.712891 85.625 4.42539 85.625 9.10039V24.3629" fill="#002C6B"/>
<path d="M0.7875 6.35034C0.5125 7.17534 0.375 8.13784 0.375 9.10034V30.0003V50.9003C0.375 51.8628 0.5125 52.8253 0.7875 53.6503L24.4375 30.0003L0.7875 6.35034Z" fill="#F3F2F2"/>
<path d="M13.9875 40.4503L24.4375 30.0003L0.7875 6.35034C0.5125 7.17534 0.375 8.13784 0.375 9.10034" fill="#FDFFFD"/>
<path d="M12.4754 29.8633V29.7258L14.9504 29.4508L14.6754 29.1758L12.4754 29.5883C12.3379 29.1758 12.2004 28.9008 12.0629 28.6258L13.8504 27.3883V26.9758L11.9254 28.4883L11.7879 28.3508L13.8504 26.5633V26.0133H13.3004L11.5129 28.0758L11.3754 27.9383L12.8879 26.0133H12.6129L11.3754 27.8008C11.1004 27.6633 10.6879 27.5258 10.4129 27.3883L10.8254 25.1883L10.5504 24.9133L10.1379 27.2508H10.0004L10.1379 24.6383L9.72539 24.2258L9.31289 24.6383L9.58789 27.2508H9.45039L9.17539 24.7758L8.90039 25.0508L9.31289 27.2508C8.90039 27.3883 8.62539 27.5258 8.35039 27.6633L7.11289 25.8758H6.70039L8.21289 27.8008L8.07539 27.9383L6.28789 25.8758H5.73789V26.4258L7.80039 28.2133L7.66289 28.3508L5.73789 26.8383V27.2508L7.52539 28.4883C7.38789 28.7633 7.25039 29.1758 7.11289 29.4508L4.91289 29.0383L4.63789 29.3133L7.11289 29.5883V29.7258L4.50039 29.5883L4.08789 30.0008L4.50039 30.4133L7.11289 30.2758V30.4133L4.63789 30.6883L4.91289 30.9633L7.11289 30.5508C7.25039 30.9633 7.38789 31.2383 7.52539 31.5133L5.73789 32.7508V33.1633L7.66289 31.6508L7.80039 31.7883L5.73789 33.5758V34.1258H6.28789L8.07539 32.0633L8.21289 32.2008L6.70039 34.1258H7.11289L8.35039 32.3383C8.62539 32.4758 9.03789 32.6133 9.31289 32.7508L8.90039 34.9508L9.17539 35.2258L9.45039 32.7508H9.58789L9.45039 35.3633L9.86289 35.7758L10.2754 35.3633L10.0004 32.7508H10.1379L10.4129 35.2258L10.6879 34.9508L10.2754 32.7508C10.6879 32.6133 10.9629 32.4758 11.2379 32.3383L12.6129 34.1258H13.0254L11.5129 32.2008L11.6504 32.0633L13.4379 34.1258H13.9879V33.5758L11.9254 31.7883L12.0629 31.6508L13.9879 33.1633V32.7508L12.2004 31.5133C12.3379 31.2383 12.4754 30.8258 12.6129 30.5508L14.8129 30.9633L15.0879 30.6883L12.6129 30.4133V30.2758L15.2254 30.4133L15.5004 30.0008L15.0879 29.5883L12.4754 29.8633Z" fill="#E8BB00"/>
<path d="M21.1381 29.5882V28.6257L20.4506 29.4507L19.3506 29.1757L20.0381 30.0007L19.3506 30.8257L20.4506 30.5507L21.1381 31.3757V30.4132L22.1006 30.0007L21.1381 29.5882Z" fill="#E8BB00"/>
<path d="M3.81289 39.3512L3.40039 38.3887L3.12539 39.4887L2.02539 39.6262L2.98789 40.1762L2.71289 41.1387L3.53789 40.4512L4.50039 41.0012L4.08789 40.0387L4.91289 39.2137L3.81289 39.3512Z" fill="#E8BB00"/>
<path d="M3.12539 20.5133L3.40039 21.6133L3.81289 20.6508L4.91289 20.7883L4.08789 19.9633L4.50039 19.0008L3.53789 19.5508L2.71289 18.8633L2.98789 19.8258L2.02539 20.3758L3.12539 20.5133Z" fill="#E8BB00"/>
</svg>
