<svg width="216" height="38" viewBox="0 0 216 38" fill="none" xmlns="http://www.w3.org/2000/svg">
<g clip-path="url(#clip0_577_486)">
<path d="M29.0985 0.912842V6.29792H17.2942V37.1603H11.7894V6.29792H0V0.912842H29.0985Z" fill="white"/>
<path d="M39.8487 37.8338C37.4138 37.8338 35.1948 37.2211 33.1923 35.9956C31.1897 34.7701 29.5926 33.126 28.4018 31.0634C27.2106 29.0007 26.6152 26.718 26.6152 24.2153C26.6152 22.3165 26.9592 20.5429 27.6475 18.8944C28.3354 17.246 29.2837 15.7961 30.4924 14.5447C31.7011 13.2933 33.1083 12.3138 34.7139 11.6062C36.3196 10.8986 38.0312 10.5446 39.8487 10.5446C42.2837 10.5446 44.5023 11.1573 46.5048 12.3828C48.5078 13.6082 50.1045 15.2567 51.2956 17.3281C52.4864 19.3995 53.0818 21.695 53.0818 24.2153C53.0818 26.0965 52.7379 27.857 52.0496 29.4967C51.3617 31.1368 50.4134 32.5823 49.2047 33.8337C47.9959 35.0851 46.5932 36.0646 44.9962 36.7722C43.3995 37.4798 41.6834 37.8338 39.8487 37.8338ZM39.8487 32.4487C41.3107 32.4487 42.6261 32.0695 43.7942 31.3112C44.9622 30.5529 45.8848 29.5482 46.5619 28.2968C47.2386 27.0454 47.5774 25.6849 47.5774 24.2153C47.5774 22.7106 47.2308 21.3286 46.5373 20.0688C45.8441 18.8087 44.9134 17.804 43.7453 17.0544C42.5773 16.3044 41.2783 15.9296 39.8487 15.9296C38.3938 15.9296 37.0821 16.3106 35.9141 17.073C34.746 17.835 33.8216 18.8437 33.1408 20.0984C32.4603 21.3534 32.1197 22.7256 32.1197 24.2153C32.1197 25.7564 32.4715 27.1483 33.1751 28.3909C33.8783 29.6336 34.8169 30.6207 35.9898 31.3521C37.1631 32.083 38.4494 32.4487 39.8487 32.4487Z" fill="white"/>
<path d="M56.7207 37.1599V11.2691H62.2259V14.4145C63.0608 13.3832 63.9517 12.5457 64.8981 11.9027C65.8442 11.2596 66.9682 10.9381 68.2698 10.9381C70.2131 10.9381 71.9396 11.3655 73.4498 12.2209C74.9599 13.0759 76.2223 14.262 77.2374 15.7791C78.27 14.2423 79.547 13.0511 81.0687 12.2059C82.5904 11.3607 84.3024 10.9381 86.205 10.9381C88.4758 10.9381 90.4765 11.4961 92.2071 12.6121C93.9377 13.7281 95.2949 15.2145 96.2787 17.0713C97.262 18.9281 97.7537 20.9733 97.7537 23.2071V37.1599H92.2489V23.2071C92.2489 21.932 92.0001 20.7762 91.5032 19.7394C91.0062 18.7026 90.3068 17.8742 89.4058 17.2538C88.5045 16.6338 87.4376 16.3235 86.205 16.3235C84.9899 16.3235 83.9144 16.6338 82.9776 17.2538C82.0405 17.8742 81.3086 18.7026 80.7811 19.7394C80.2536 20.7762 79.9898 21.932 79.9898 23.2071V37.1599H74.485V23.2071C74.485 21.932 74.2212 20.7762 73.6937 19.7394C73.1662 18.7026 72.4339 17.8742 71.4972 17.2538C70.5604 16.6338 69.4845 16.3235 68.2698 16.3235C67.1156 16.3235 66.0811 16.6483 65.166 17.2987C64.2509 17.9486 63.532 18.8095 63.0093 19.881C62.4871 20.9525 62.2259 22.1258 62.2259 23.4009V37.1599H56.7207Z" fill="white"/>
<path d="M156.405 16.6539H150.855L150.839 37.16H145.335L145.35 16.6539H140.162V11.2692H145.35L145.335 3.1394H150.839L150.855 11.2692H156.405V16.6539Z" fill="white"/>
<path d="M171.555 37.8338C169.12 37.8338 166.901 37.2211 164.898 35.9956C162.896 34.7701 161.299 33.126 160.108 31.0634C158.917 29.0007 158.321 26.718 158.321 24.2153C158.321 22.3165 158.665 20.5429 159.354 18.8944C160.041 17.246 160.99 15.7961 162.198 14.5447C163.407 13.2933 164.814 12.3138 166.42 11.6062C168.026 10.8986 169.737 10.5446 171.555 10.5446C173.99 10.5446 176.208 11.1573 178.212 12.3828C180.215 13.6082 181.812 15.2567 183.002 17.3281C184.192 19.3995 184.789 21.695 184.789 24.2153C184.789 26.0965 184.446 27.857 183.756 29.4967C183.069 31.1368 182.118 32.5823 180.909 33.8337C179.701 35.0851 178.298 36.0646 176.703 36.7722C175.106 37.4798 173.39 37.8338 171.555 37.8338ZM171.555 32.4487C173.017 32.4487 174.332 32.0695 175.5 31.3112C176.668 30.5529 177.593 29.5482 178.268 28.2968C178.947 27.0454 179.283 25.6849 179.283 24.2153C179.283 22.7106 178.936 21.3286 178.246 20.0688C177.552 18.8087 176.62 17.804 175.451 17.0544C174.283 16.3044 172.984 15.9296 171.555 15.9296C170.1 15.9296 168.788 16.3106 167.62 17.073C166.452 17.835 165.528 18.8437 164.847 20.0984C164.166 21.3534 163.826 22.7256 163.826 24.2153C163.826 25.7564 164.178 27.1483 164.881 28.3909C165.584 29.6336 166.523 30.6207 167.696 31.3521C168.869 32.083 170.155 32.4487 171.555 32.4487Z" fill="white"/>
<path fill-rule="evenodd" clip-rule="evenodd" d="M119.484 17.4066C119.431 17.5012 119.329 17.5601 119.219 17.5601C119.108 17.5598 119.007 17.5003 118.954 17.4053C117.921 15.5492 117.411 14.1686 117.057 12.1929C117.057 12.1929 112.855 11.356 109.575 14.4471C108.628 15.3391 110.824 10.2042 114.638 9.07548C114.638 9.07548 113.522 7.28547 111.672 6.61624C111.611 6.5963 111.569 6.54219 111.565 6.47954C111.562 6.4172 111.597 6.35867 111.655 6.33177C112.55 5.9644 114.986 5.16448 117.949 5.82865L117.334 0.371288C118.402 -0.12708 120.067 -0.120435 121.104 0.371288L120.489 5.82865C123.451 5.16448 125.888 5.9644 126.784 6.33114C126.841 6.35835 126.876 6.4172 126.873 6.47954C126.869 6.54219 126.827 6.5963 126.766 6.61687C124.915 7.28547 123.801 9.07548 123.801 9.07548C127.614 10.2042 129.76 15.3913 128.794 14.5177C125.189 11.2572 121.516 12.0584 121.516 12.0584C121.161 14.0354 120.536 15.5315 119.484 17.4066Z" fill="#00BD50"/>
<path fill-rule="evenodd" clip-rule="evenodd" d="M112.967 8.83628C109.427 10.8031 107.699 13.5448 106.625 16.3922C107.454 16.991 107.992 17.9537 107.992 19.0392V25.2323C107.992 25.8801 107.801 26.4843 107.47 26.9933C109.353 30.3001 112.694 32.7401 116.665 33.5207C116.739 33.4267 116.819 33.3372 116.905 33.2527C117.42 32.7495 118.117 32.467 118.844 32.467H124.014C124.741 32.467 125.438 32.7495 125.953 33.2527C126.467 33.7557 126.756 34.438 126.756 35.1495V35.1501C126.756 35.8616 126.467 36.5439 125.953 37.0469C125.438 37.5502 124.741 37.8326 124.014 37.8326H118.844C118.117 37.8326 117.42 37.5502 116.905 37.0469C116.762 36.9066 116.636 36.7522 116.529 36.5872C111.439 35.7423 107.134 32.699 104.723 28.5193C104.692 28.5199 104.662 28.5205 104.631 28.5205H104.63C102.774 28.5205 101.269 27.0483 101.269 25.2323V19.0392C101.269 17.6397 102.162 16.4442 103.422 15.9695C104.683 12.1494 106.787 9.24611 110.337 7.25587C110.535 7.145 112.469 7.931 112.967 8.83628ZM125.698 8.66502C126.349 7.61552 128.266 7.13388 128.427 7.22342C131.999 9.20735 134.122 12.1158 135.393 15.9466C136.686 16.4045 137.61 17.6163 137.61 19.0392V25.2323C137.61 27.0483 136.105 28.5205 134.248 28.5205H134.247C132.391 28.5205 130.886 27.0483 130.886 25.2323V19.0392C130.886 17.9729 131.405 17.025 132.209 16.4241C131.145 13.5775 128.368 10.201 125.698 8.66502Z" fill="#F4363F"/>
</g>
<path d="M188.667 37.9996C188.198 37.9996 187.801 37.8331 187.475 37.5C187.159 37.1669 187.001 36.7609 187.001 36.2821C187.001 35.8137 187.159 35.4129 187.475 35.0798C187.801 34.7467 188.198 34.5802 188.667 34.5802C189.135 34.5802 189.533 34.7467 189.859 35.0798C190.185 35.4129 190.348 35.8137 190.348 36.2821C190.348 36.7609 190.185 37.1669 189.859 37.5C189.533 37.8331 189.135 37.9996 188.667 37.9996Z" fill="white"/>
<path d="M205.879 21.9798H209.058V37.5937H205.864L205.741 35.3297C205.293 36.1312 204.687 36.7765 203.923 37.2658C203.169 37.755 202.272 37.9996 201.233 37.9996C200.102 37.9996 199.042 37.7862 198.054 37.3595C197.076 36.9223 196.21 36.3185 195.456 35.5483C194.712 34.778 194.127 33.8932 193.699 32.8939C193.281 31.8842 193.072 30.8016 193.072 29.6462C193.072 28.5324 193.276 27.4863 193.683 26.5078C194.091 25.5189 194.656 24.6549 195.38 23.9159C196.103 23.1768 196.939 22.5991 197.886 22.1827C198.844 21.756 199.868 21.5426 200.958 21.5426C202.068 21.5426 203.046 21.8028 203.892 22.3233C204.748 22.8333 205.451 23.4891 206.001 24.2906L205.879 21.9798ZM201.309 34.8612C202.226 34.8612 203.016 34.627 203.678 34.1586C204.351 33.6902 204.855 33.0604 205.191 32.2693C205.538 31.4782 205.685 30.6038 205.634 29.6462C205.573 28.7302 205.334 27.8974 204.916 27.148C204.509 26.3985 203.963 25.8052 203.281 25.368C202.598 24.9204 201.824 24.6966 200.958 24.6966C200.051 24.6966 199.231 24.9308 198.497 25.3992C197.774 25.8676 197.214 26.4974 196.816 27.2885C196.419 28.0796 196.246 28.9592 196.297 29.9272C196.358 30.8328 196.623 31.6604 197.091 32.4099C197.57 33.1593 198.176 33.7579 198.91 34.2055C199.654 34.6426 200.454 34.8612 201.309 34.8612Z" fill="white"/>
<path d="M212.715 21.9798H215.894V37.5937H212.715V21.9798ZM214.32 19.4035C213.841 19.4035 213.439 19.2421 213.113 18.9194C212.787 18.5967 212.624 18.1908 212.624 17.7015C212.624 17.2227 212.787 16.822 213.113 16.4993C213.439 16.1662 213.841 15.9996 214.32 15.9996C214.789 15.9996 215.186 16.1662 215.512 16.4993C215.838 16.822 216.001 17.2227 216.001 17.7015C216.001 18.1908 215.838 18.5967 215.512 18.9194C215.186 19.2421 214.789 19.4035 214.32 19.4035Z" fill="white"/>
<defs>
<clipPath id="clip0_577_486">
<rect width="185" height="38" fill="white"/>
</clipPath>
</defs>
</svg>
