<svg width="180" height="32" viewBox="0 0 180 32" fill="none" xmlns="http://www.w3.org/2000/svg">
<g clip-path="url(#clip0_577_276)">
<path d="M24.2488 0.926758V5.41433H14.4119V31.133H9.8245V5.41433H0V0.926758H24.2488Z" fill="#161414"/>
<path d="M33.2076 31.6942C31.1785 31.6942 29.3293 31.1835 27.6605 30.1623C25.9917 29.1411 24.6608 27.771 23.6685 26.0522C22.6759 24.3333 22.1797 22.431 22.1797 20.3454C22.1797 18.7631 22.4663 17.285 23.0399 15.9113C23.6132 14.5376 24.4034 13.3294 25.4107 12.2866C26.4179 11.2438 27.5906 10.4275 28.9286 9.83781C30.2666 9.24813 31.693 8.95312 33.2076 8.95312C35.2367 8.95312 37.0855 9.46374 38.7543 10.485C40.4235 11.5062 41.754 12.8799 42.7467 14.6061C43.739 16.3322 44.2352 18.2452 44.2352 20.3454C44.2352 21.9131 43.9486 23.3802 43.375 24.7466C42.8017 26.1133 42.0115 27.3179 41.0042 28.3607C39.9969 29.4035 38.828 30.2198 37.4971 30.8095C36.1666 31.3992 34.7365 31.6942 33.2076 31.6942ZM33.2076 27.2066C34.4259 27.2066 35.5221 26.8906 36.4955 26.2587C37.4689 25.6267 38.2377 24.7895 38.8019 23.7466C39.3659 22.7038 39.6481 21.5701 39.6481 20.3454C39.6481 19.0915 39.3593 17.9398 38.7814 16.89C38.2038 15.8399 37.4281 15.0026 36.4547 14.378C35.4814 13.753 34.3989 13.4407 33.2076 13.4407C31.9952 13.4407 30.9021 13.7582 29.9287 14.3935C28.9554 15.0285 28.185 15.8691 27.6176 16.9146C27.0506 17.9605 26.7667 19.104 26.7667 20.3454C26.7667 21.6297 27.0599 22.7896 27.6462 23.8251C28.2322 24.8606 29.0144 25.6833 29.9918 26.2927C30.9695 26.9019 32.0415 27.2066 33.2076 27.2066Z" fill="#161414"/>
<path d="M47.2676 31.1327V9.55708H51.8553V12.1783C52.551 11.3188 53.2934 10.6209 54.0821 10.085C54.8705 9.54918 55.8072 9.28125 56.8919 9.28125C58.5112 9.28125 59.95 9.63737 61.2085 10.3502C62.4669 11.0628 63.5189 12.0512 64.3648 13.3154C65.2253 12.0347 66.2895 11.0421 67.5576 10.3378C68.8257 9.63342 70.2523 9.28125 71.8378 9.28125C73.7301 9.28125 75.3974 9.74625 76.8396 10.6762C78.2818 11.6062 79.4127 12.8449 80.2325 14.3923C81.052 15.9396 81.4618 17.6439 81.4618 19.5054V31.1327H76.8744V19.5054C76.8744 18.4428 76.667 17.4797 76.253 16.6157C75.8389 15.7517 75.256 15.0613 74.5052 14.5443C73.7541 14.0276 72.865 13.7691 71.8378 13.7691C70.8253 13.7691 69.929 14.0276 69.1484 14.5443C68.3674 15.0613 67.7575 15.7517 67.3179 16.6157C66.8783 17.4797 66.6585 18.4428 66.6585 19.5054V31.1327H62.0711V19.5054C62.0711 18.4428 61.8514 17.4797 61.4118 16.6157C60.9722 15.7517 60.3619 15.0613 59.5813 14.5443C58.8007 14.0276 57.9041 13.7691 56.8919 13.7691C55.93 13.7691 55.0679 14.0398 54.3053 14.5817C53.5427 15.1234 52.9437 15.8408 52.5081 16.7337C52.0729 17.6266 51.8553 18.6043 51.8553 19.6669V31.1327H47.2676Z" fill="#161414"/>
<path d="M130.337 14.0443H125.712L125.7 31.1327H121.112L121.125 14.0443H116.802V9.55706H121.125L121.112 2.78223H125.7L125.712 9.55706H130.337V14.0443Z" fill="#161414"/>
<path d="M142.962 31.6942C140.933 31.6942 139.084 31.1835 137.415 30.1623C135.747 29.1411 134.416 27.771 133.423 26.0522C132.431 24.3333 131.935 22.431 131.935 20.3454C131.935 18.7631 132.221 17.285 132.795 15.9113C133.368 14.5376 134.159 13.3294 135.166 12.2866C136.173 11.2438 137.345 10.4275 138.683 9.83781C140.022 9.24813 141.448 8.95312 142.962 8.95312C144.992 8.95312 146.84 9.46374 148.51 10.485C150.18 11.5062 151.51 12.8799 152.502 14.6061C153.494 16.3322 153.991 18.2452 153.991 20.3454C153.991 21.9131 153.705 23.3802 153.13 24.7466C152.558 26.1133 151.765 27.3179 150.758 28.3607C149.751 29.4035 148.582 30.2198 147.252 30.8095C145.921 31.3992 144.492 31.6942 142.962 31.6942ZM142.962 27.2066C144.181 27.2066 145.277 26.8906 146.25 26.2587C147.224 25.6267 147.994 24.7895 148.557 23.7466C149.123 22.7038 149.402 21.5701 149.402 20.3454C149.402 19.0915 149.113 17.9398 148.538 16.89C147.96 15.8399 147.183 15.0026 146.21 14.378C145.236 13.753 144.154 13.4407 142.962 13.4407C141.75 13.4407 140.657 13.7582 139.684 14.3935C138.71 15.0285 137.94 15.8691 137.373 16.9146C136.805 17.9605 136.522 19.104 136.522 20.3454C136.522 21.6297 136.815 22.7896 137.401 23.8251C137.987 24.8606 138.769 25.6833 139.747 26.2927C140.724 26.9019 141.796 27.2066 142.962 27.2066Z" fill="#161414"/>
<path fill-rule="evenodd" clip-rule="evenodd" d="M99.5705 14.6715C99.526 14.7504 99.4413 14.7994 99.3493 14.7994C99.257 14.7992 99.1725 14.7496 99.1286 14.6705C98.2677 13.1237 97.8429 11.9732 97.5474 10.3268C97.5474 10.3268 94.0458 9.62931 91.3126 12.2053C90.524 12.9486 92.3535 8.66949 95.5316 7.72892C95.5316 7.72892 94.6023 6.23724 93.0605 5.67955C93.0098 5.66293 92.9746 5.61784 92.9715 5.56563C92.9684 5.51369 92.998 5.4649 93.0461 5.44249C93.7923 5.13635 95.8224 4.46975 98.291 5.02323L97.7791 0.475423C98.6687 0.0601159 100.056 0.0656533 100.92 0.475423L100.408 5.02323C102.876 4.46975 104.907 5.13635 105.653 5.44196C105.701 5.46464 105.731 5.51369 105.728 5.56563C105.724 5.61784 105.689 5.66293 105.639 5.68007C104.097 6.23724 103.167 7.72892 103.167 7.72892C106.346 8.66949 108.134 12.9921 107.329 12.2641C104.325 9.54704 101.263 10.2147 101.263 10.2147C100.968 11.8622 100.447 13.1089 99.5705 14.6715Z" fill="#00BD50"/>
<path fill-rule="evenodd" clip-rule="evenodd" d="M94.1395 7.52958C91.1892 9.16859 89.7492 11.4533 88.8547 13.8262C89.5455 14.3252 89.9936 15.1274 89.9936 16.0321V21.1929C89.9936 21.7327 89.8342 22.2363 89.5585 22.6604C91.1275 25.4161 93.912 27.4495 97.2212 28.1C97.2823 28.0216 97.3492 27.947 97.4213 27.8766C97.8498 27.4572 98.4311 27.2219 99.0371 27.2219H103.345C103.951 27.2219 104.532 27.4572 104.961 27.8766C105.389 28.2958 105.63 28.8644 105.63 29.4573V29.4578C105.63 30.0507 105.389 30.6193 104.961 31.0384C104.532 31.4578 103.951 31.6932 103.345 31.6932H99.0371C98.4311 31.6932 97.8498 31.4578 97.4213 31.0384C97.3015 30.9215 97.1966 30.7928 97.1075 30.6554C92.8662 29.9513 89.2783 27.4152 87.269 23.9321C87.2437 23.9326 87.2181 23.9331 87.1925 23.9331H87.1917C85.6448 23.9331 84.3906 22.7062 84.3906 21.1929V16.0321C84.3906 14.8658 85.1354 13.8695 86.1853 13.4739C87.2363 10.2905 88.9895 7.8711 91.9481 6.21257C92.1127 6.12018 93.7241 6.77518 94.1395 7.52958ZM104.748 7.38687C105.291 6.51228 106.888 6.11092 107.023 6.18553C109.999 7.8388 111.768 10.2625 112.828 13.4549C113.905 13.8365 114.675 14.8462 114.675 16.0321V21.1929C114.675 22.7062 113.421 23.9331 111.874 23.9331H111.873C110.326 23.9331 109.072 22.7062 109.072 21.1929V16.0321C109.072 15.1434 109.504 14.3535 110.175 13.8527C109.288 11.4806 106.974 8.66682 104.748 7.38687Z" fill="#F4363F"/>
</g>
<path d="M157.222 31.8324C156.832 31.8324 156.5 31.6936 156.229 31.416C155.966 31.1384 155.834 30.8001 155.834 30.4011C155.834 30.0107 155.966 29.6768 156.229 29.3992C156.5 29.1216 156.832 28.9828 157.222 28.9828C157.613 28.9828 157.944 29.1216 158.216 29.3992C158.487 29.6768 158.623 30.0107 158.623 30.4011C158.623 30.8001 158.487 31.1384 158.216 31.416C157.944 31.6936 157.613 31.8324 157.222 31.8324Z" fill="#161414"/>
<path d="M171.566 18.4825H174.215V31.4941H171.553L171.451 29.6074C171.077 30.2753 170.572 30.8131 169.935 31.2208C169.307 31.6285 168.56 31.8324 167.694 31.8324C166.752 31.8324 165.869 31.6545 165.045 31.2989C164.23 30.9346 163.508 30.4314 162.88 29.7895C162.26 29.1476 161.772 28.4103 161.415 27.5776C161.067 26.7361 160.893 25.834 160.893 24.8712C160.893 23.943 161.063 23.0712 161.403 22.2558C161.742 21.4318 162.213 20.7118 162.816 20.0959C163.419 19.48 164.115 18.9986 164.905 18.6516C165.703 18.296 166.556 18.1181 167.465 18.1181C168.39 18.1181 169.205 18.335 169.91 18.7687C170.623 19.1938 171.209 19.7402 171.667 20.4082L171.566 18.4825ZM167.758 29.217C168.522 29.217 169.18 29.0219 169.732 28.6315C170.292 28.2412 170.712 27.7164 170.992 27.0571C171.281 26.3978 171.404 25.6692 171.362 24.8712C171.311 24.1078 171.111 23.4139 170.763 22.7893C170.424 22.1647 169.969 21.6703 169.401 21.306C168.832 20.933 168.186 20.7465 167.465 20.7465C166.709 20.7465 166.026 20.9417 165.414 21.332C164.811 21.7223 164.345 22.2472 164.013 22.9064C163.682 23.5657 163.538 24.2986 163.58 25.1054C163.631 25.86 163.852 26.5497 164.243 27.1742C164.642 27.7988 165.147 28.2975 165.758 28.6705C166.378 29.0349 167.044 29.217 167.758 29.217Z" fill="#161414"/>
<path d="M177.263 18.4825H179.912V31.4941H177.263V18.4825ZM178.6 16.3355C178.201 16.3355 177.865 16.2011 177.594 15.9322C177.322 15.6633 177.186 15.325 177.186 14.9173C177.186 14.5183 177.322 14.1843 177.594 13.9154C177.865 13.6378 178.201 13.499 178.6 13.499C178.99 13.499 179.321 13.6378 179.593 13.9154C179.865 14.1843 180.001 14.5183 180.001 14.9173C180.001 15.325 179.865 15.6633 179.593 15.9322C179.321 16.2011 178.99 16.3355 178.6 16.3355Z" fill="#161414"/>
<defs>
<clipPath id="clip0_577_276">
<rect width="154.167" height="31.6667" fill="white" transform="translate(0 0.166016)"/>
</clipPath>
</defs>
</svg>
