<svg width="70" height="73" viewBox="0 0 70 73" fill="none" xmlns="http://www.w3.org/2000/svg">
<path fill-rule="evenodd" clip-rule="evenodd" d="M35.086 33.5484C34.9833 33.7307 34.7874 33.8442 34.5747 33.8442C34.3613 33.8436 34.1661 33.7289 34.0647 33.546C32.0746 29.9685 31.0929 27.3077 30.4098 23.4998C30.4098 23.4998 22.3162 21.8867 15.9986 27.8444C14.1757 29.5636 18.4044 19.6669 25.7505 17.4915C25.7505 17.4915 23.6024 14.0416 20.0386 12.7517C19.9215 12.7133 19.8402 12.609 19.833 12.4882C19.8259 12.3681 19.8942 12.2553 20.0054 12.2035C21.7301 11.4954 26.4225 9.95369 32.1286 11.2338L30.9452 0.715597C33.0017 -0.244925 36.2089 -0.232118 38.2055 0.715597L37.0221 11.2338C42.7275 9.95369 47.42 11.4954 49.1459 12.2022C49.2572 12.2547 49.3248 12.3681 49.3177 12.4882C49.3099 12.609 49.2292 12.7133 49.1121 12.7529C45.5477 14.0416 43.4002 17.4915 43.4002 17.4915C50.7463 19.6669 54.8793 29.6642 53.0187 27.9804C46.0753 21.6965 38.9992 23.2406 38.9992 23.2406C38.3154 27.051 37.1119 29.9344 35.086 33.5484Z" fill="#00BD50"/>
<path fill-rule="evenodd" clip-rule="evenodd" d="M22.5339 17.031C15.7144 20.8217 12.386 26.1059 10.3183 31.5938C11.915 32.748 12.951 34.6033 12.951 36.6956V48.6317C12.951 49.8802 12.5824 51.0447 11.9452 52.0257C15.5718 58.3991 22.0079 63.1018 29.6568 64.6063C29.7982 64.425 29.9527 64.2525 30.1195 64.0897C31.1099 63.1198 32.4534 62.5754 33.8543 62.5754H43.8111C45.2121 62.5754 46.5556 63.1198 47.546 64.0897C48.5364 65.0591 49.0931 66.3742 49.0931 67.7455V67.7467C49.0931 69.1179 48.5364 70.433 47.546 71.4024C46.5556 72.3724 45.2121 72.9167 43.8111 72.9167H33.8543C32.4534 72.9167 31.1099 72.3724 30.1195 71.4024C29.8426 71.132 29.6001 70.8344 29.3942 70.5164C19.5906 68.8881 11.2974 63.0225 6.65324 54.9669C6.59467 54.968 6.5355 54.9692 6.47634 54.9692H6.47457C2.89888 54.9692 0 52.1317 0 48.6317V36.6956C0 33.9982 1.72157 31.694 4.14835 30.7791C6.57751 23.4166 10.6301 17.8209 17.4685 13.9851C17.8489 13.7714 21.5737 15.2863 22.5339 17.031ZM47.0555 16.701C48.3092 14.6782 52.0014 13.7499 52.312 13.9225C59.1919 17.7462 63.2811 23.3517 65.7297 30.7351C68.2204 31.6176 70 33.953 70 36.6956V48.6317C70 52.1317 67.1011 54.9692 63.5254 54.9692H63.523C59.9473 54.9692 57.0484 52.1317 57.0484 48.6317V36.6956C57.0484 34.6404 58.0483 32.8134 59.5977 31.6552C57.5478 26.169 52.1996 19.6612 47.0555 16.701Z" fill="#F4363F"/>
</svg>
