<svg width="38" height="38" viewBox="0 0 38 38" fill="none" xmlns="http://www.w3.org/2000/svg">
<path d="M20.7796 23.0454L23.0462 20.7797L33.2587 30.9843L30.9945 33.2516L20.7796 23.0454ZM27.5816 13.9809L32.1179 9.4446C25.8637 3.19043 15.7304 3.18252 9.46831 9.42877C15.6987 7.36252 22.6258 9.0171 27.5816 13.9809ZM9.42873 9.46043C3.19039 15.7225 3.19039 25.8559 9.44456 32.11L13.9808 27.5738C9.01706 22.6259 7.36248 15.6988 9.42873 9.46043ZM9.46039 9.43668C9.45248 9.4446 9.45248 9.4446 9.44456 9.4446C9.43664 9.45252 9.43664 9.45252 9.43664 9.46043C8.84289 14.2263 11.2891 20.3617 16.2529 25.3175L25.3254 16.245C20.3537 11.2892 14.2262 8.83502 9.46039 9.43668Z" fill="url(#paint0_linear_577_2421)"/>
<defs>
<linearGradient id="paint0_linear_577_2421" x1="32.2221" y1="32.1464" x2="1.79209" y2="17.9405" gradientUnits="userSpaceOnUse">
<stop stop-color="#AD0911"/>
<stop offset="1" stop-color="#FF535B"/>
</linearGradient>
</defs>
</svg>
