<svg width="38" height="38" viewBox="0 0 38 38" fill="none" xmlns="http://www.w3.org/2000/svg">
<path d="M8.96559 18.1924C8.17243 19.3173 7.47906 20.5093 6.8934 21.7549C5.7395 24.056 5.0859 26.5753 4.97559 29.1471C4.97559 31.8962 6.12152 33.7724 8.37777 34.7224C10.3668 35.5596 13.0625 35.6249 15.7046 35.6249H22.2953C26.8256 35.6249 33.0303 35.6249 33.0303 29.1352C32.9189 26.561 32.2633 24.0395 31.1065 21.7371C30.5209 20.4915 29.8275 19.2995 29.0343 18.1746C26.5762 14.713 23.6371 12.5815 20.609 12.0174L20.3953 11.9759L20.1162 11.9402C19.3757 11.8362 18.6242 11.8362 17.8837 11.9402L17.6046 11.9759L17.3909 12.0174C14.3628 12.5993 11.4178 14.7309 8.96559 18.1924ZM17.8718 19.0296C17.9485 18.7898 18.0994 18.5806 18.3027 18.4322C18.506 18.2837 18.7512 18.2037 19.0029 18.2037C19.2547 18.2037 19.4999 18.2837 19.7032 18.4322C19.9065 18.5806 20.0574 18.7898 20.134 19.0296H21.1553C21.4702 19.0296 21.7723 19.1547 21.995 19.3774C22.2177 19.6001 22.3428 19.9022 22.3428 20.2171C22.3428 20.532 22.2177 20.8341 21.995 21.0568C21.7723 21.2795 21.4702 21.4046 21.1553 21.4046H18.2578C18.0157 21.4062 17.7841 21.503 17.6129 21.6741C17.4418 21.8453 17.345 22.077 17.3434 22.319V22.8593C17.3511 23.0972 17.4506 23.3228 17.6211 23.4889C17.7916 23.6549 18.0198 23.7485 18.2578 23.7499H19.7481C20.62 23.7515 21.4558 24.0985 22.0723 24.7151C22.6888 25.3316 23.0359 26.1674 23.0375 27.0393V27.5796C23.0432 28.3897 22.7503 29.1736 22.2147 29.7815C21.6792 30.3893 20.9384 30.7786 20.134 30.8749C20.0574 31.1147 19.9065 31.3239 19.7032 31.4723C19.4999 31.6208 19.2547 31.7008 19.0029 31.7008C18.7512 31.7008 18.506 31.6208 18.3027 31.4723C18.0994 31.3239 17.9485 31.1147 17.8718 30.8749H16.8506C16.5356 30.8749 16.2336 30.7498 16.0109 30.5271C15.7882 30.3044 15.6631 30.0024 15.6631 29.6874C15.6631 29.3725 15.7882 29.0704 16.0109 28.8477C16.2336 28.625 16.5356 28.4999 16.8506 28.4999H19.7421C19.9842 28.4984 20.2158 28.4015 20.387 28.2304C20.5581 28.0592 20.655 27.8276 20.6565 27.5855V27.0452C20.6565 26.8022 20.5604 26.569 20.3891 26.3966C20.2178 26.2241 19.9852 26.1265 19.7421 26.1249H18.2578C17.3848 26.1233 16.5482 25.7755 15.9315 25.1576C15.3148 24.5398 14.9684 23.7025 14.9684 22.8296V22.2893C14.9712 21.4862 15.2672 20.7118 15.8007 20.1115C16.3343 19.5113 17.0687 19.1265 17.8659 19.0296H17.8718Z" fill="#00BD50"/>
<path d="M15.6272 10.0522C17.8177 9.3189 20.1875 9.3189 22.3781 10.0522C22.5909 10.1235 22.8158 10.152 23.0396 10.1359C23.2635 10.1198 23.482 10.0595 23.6824 9.95848C23.8828 9.85743 24.0613 9.71766 24.2073 9.54724C24.3534 9.37681 24.4642 9.17912 24.5334 8.9656L26.0594 4.2156C26.1268 4.0075 26.1448 3.78655 26.112 3.57028C26.0791 3.354 25.9963 3.14837 25.8701 2.9697C25.7438 2.79103 25.5777 2.64425 25.3849 2.54102C25.192 2.43778 24.9777 2.38092 24.759 2.37497C24.3861 2.376 24.0172 2.45225 23.6744 2.59916C23.3316 2.74607 23.022 2.96062 22.764 3.22997L21.6122 4.41747C21.5234 4.50893 21.4091 4.5713 21.2841 4.59634C21.1592 4.62139 21.0296 4.60793 20.9125 4.55773C20.7954 4.50754 20.6963 4.42299 20.6282 4.31525C20.5602 4.20751 20.5265 4.08166 20.5315 3.95435C20.5446 3.74556 20.5147 3.53631 20.4437 3.33951C20.3728 3.14271 20.2623 2.96253 20.119 2.81007C19.9758 2.65761 19.8028 2.53611 19.6108 2.45305C19.4188 2.37 19.2118 2.32715 19.0026 2.32715C18.7934 2.32715 18.5865 2.37 18.3945 2.45305C18.2024 2.53611 18.0295 2.65761 17.8862 2.81007C17.743 2.96253 17.6325 3.14271 17.5615 3.33951C17.4906 3.53631 17.4607 3.74556 17.4737 3.95435C17.4788 4.08166 17.4451 4.20751 17.377 4.31525C17.309 4.42299 17.2099 4.50754 17.0928 4.55773C16.9757 4.60793 16.8461 4.62139 16.7211 4.59634C16.5962 4.5713 16.4818 4.50893 16.3931 4.41747L15.2412 3.22997C14.9815 2.95972 14.6698 2.7447 14.325 2.59778C13.9802 2.45087 13.6092 2.37508 13.2344 2.37497C13.0148 2.38093 12.7998 2.43839 12.6066 2.54272C12.4134 2.64705 12.2474 2.79534 12.122 2.97561C11.9966 3.15589 11.9153 3.36311 11.8847 3.58056C11.8542 3.79801 11.8751 4.01961 11.9459 4.22747L13.4719 8.97747C13.5423 9.18993 13.654 9.38638 13.8006 9.55551C13.9471 9.72465 14.1257 9.86313 14.326 9.96301C14.5263 10.0629 14.7444 10.1222 14.9677 10.1375C15.191 10.1528 15.4151 10.1238 15.6272 10.0522Z" fill="#00BD50"/>
</svg>
