<svg width="37" height="36" viewBox="0 0 37 36" fill="none" xmlns="http://www.w3.org/2000/svg">
<path fill-rule="evenodd" clip-rule="evenodd" d="M31.5815 30.7279C28.112 34.1036 23.4065 36 18.5 36C13.5935 36 8.88796 34.1036 5.41852 30.7279C1.9491 27.3523 0 22.7739 0 18C0 13.2261 1.9491 8.64772 5.41852 5.27209C8.88796 1.89642 13.5935 0 18.5 0C23.4065 0 28.112 1.89642 31.5815 5.27209C35.0509 8.64772 37 13.2261 37 18C37 22.7739 35.0509 27.3523 31.5815 30.7279ZM16.243 12.9163C17.2473 11.16 17.7494 10.2857 18.5 10.2857C19.2506 10.2857 19.7527 11.16 20.757 12.9163L21.016 13.3688C21.3014 13.8677 21.4441 14.1146 21.6661 14.2791C21.8884 14.4445 22.1624 14.5042 22.7057 14.6224L22.7233 14.6263L23.2254 14.7394L23.2363 14.7419C25.1795 15.1697 26.1515 15.3836 26.3836 16.1074C26.6158 16.834 25.9523 17.5888 24.627 19.0962L24.6208 19.1032L24.2773 19.494C23.8994 19.9234 23.7091 20.1394 23.6245 20.4043C23.541 20.6682 23.5683 20.9498 23.6224 21.5085L23.6245 21.5306L23.6774 22.0526L23.6797 22.0758C23.879 24.0789 23.979 25.0834 23.3734 25.5291C22.7656 25.9766 21.8511 25.5703 20.0249 24.75L19.5545 24.5392L19.5467 24.5357C19.0313 24.3066 18.7735 24.192 18.5 24.192C18.2265 24.192 17.9687 24.3066 17.4533 24.5357L17.4455 24.5392L16.9751 24.75C15.1489 25.5677 14.2344 25.9766 13.6266 25.5291C13.0214 25.0817 13.1218 24.0711 13.3226 22.0526L13.3755 21.5306L13.3776 21.5085C13.4317 20.9498 13.459 20.6682 13.3755 20.4043C13.2923 20.1411 13.1066 19.9302 12.7405 19.5142L12.7227 19.494L12.3792 19.1032L12.373 19.0962C11.0477 17.5888 10.3842 16.834 10.6164 16.1074C10.8485 15.3836 11.8205 15.1697 13.7637 14.7419L13.7746 14.7394L14.2767 14.6263C14.8317 14.5055 15.1092 14.4437 15.3339 14.2791C15.5559 14.1146 15.6986 13.8677 15.984 13.3688L16.243 12.9163Z" fill="url(#paint0_linear_577_1747)"/>
<defs>
<linearGradient id="paint0_linear_577_1747" x1="18.5" y1="0" x2="19.1032" y2="47.9999" gradientUnits="userSpaceOnUse">
<stop stop-color="#ECDFD3"/>
<stop offset="1" stop-color="#C77C52"/>
</linearGradient>
</defs>
</svg>
