<svg width="33" height="41" viewBox="0 0 33 41" fill="none" xmlns="http://www.w3.org/2000/svg">
<path fill-rule="evenodd" clip-rule="evenodd" d="M18.6169 0H14.3829C10.3902 0 8.39595 0 7.15541 1.2269C5.91482 2.45377 5.91482 4.426 5.91482 8.37467V8.41235L11.9398 5.16297C13.3388 4.40873 14.9066 4.01354 16.4999 4.01354C18.0932 4.01354 19.661 4.40873 21.06 5.16297L27.085 8.41235V8.37467C27.085 4.426 27.085 2.45377 25.8444 1.2269C24.6038 0 22.6096 0 18.6169 0ZM16.5 7.15375C17.5622 7.15375 18.6074 7.41721 19.5401 7.92004L29.689 13.3908C30.6909 13.931 31.5272 14.7283 32.1099 15.6987C32.6925 16.6692 33 17.7769 33 18.9055V29.2461C33 30.3747 32.6925 31.4825 32.1099 32.453C31.5272 33.4234 30.6909 34.2206 29.689 34.7609L19.5401 40.2337C18.6074 40.7365 17.5622 41 16.5 41C15.4378 41 14.3926 40.7365 13.46 40.2337L3.3089 34.7609C2.30732 34.2204 1.47147 33.423 0.889202 32.4526C0.306972 31.4821 -0.000221387 30.3745 1.19706e-07 29.2461V18.9076C-0.000221387 17.7792 0.306972 16.6716 0.889202 15.7012C1.47147 14.7308 2.30732 13.9334 3.3089 13.3929L13.46 7.92004C14.3926 7.41721 15.4378 7.15375 16.5 7.15375ZM14.6921 19.9377C15.4965 18.5077 15.8988 17.7959 16.5 17.7959C17.1012 17.7959 17.5035 18.5098 18.3079 19.9377L18.5154 20.3062C18.744 20.7123 18.8583 20.9133 19.0362 21.0473C19.2142 21.182 19.4337 21.2306 19.8689 21.3269L19.883 21.33L20.2852 21.4221L20.2939 21.4241C21.8505 21.7724 22.6291 21.9466 22.815 22.5359C23.001 23.1276 22.4695 23.7421 21.4079 24.9696L21.403 24.9751L21.1278 25.2933L21.1272 25.294C20.8249 25.6431 20.6726 25.8189 20.6049 26.0345C20.5371 26.2522 20.5604 26.4846 20.6049 26.9515L20.6472 27.3765L20.649 27.3953C20.8087 29.0263 20.8888 29.8442 20.4038 30.2071C19.9169 30.5714 19.1844 30.2406 17.7215 29.5728L17.3447 29.4011L17.3386 29.3983C16.9257 29.2118 16.7191 29.1184 16.5 29.1184C16.2809 29.1184 16.0745 29.2117 15.6617 29.3982L15.6553 29.4011L15.2785 29.5728C13.8156 30.2385 13.0831 30.5714 12.5962 30.2071C12.1114 29.8428 12.1919 29.02 12.3528 27.3765L12.3951 26.9515C12.4396 26.4846 12.4629 26.2522 12.3951 26.0345C12.3284 25.8201 12.1797 25.6484 11.8865 25.3097L11.8722 25.2933L11.597 24.9751L11.5922 24.9696C10.5305 23.7421 9.99896 23.1276 10.185 22.5359C10.3709 21.9466 11.1495 21.7724 12.7061 21.4241L12.7148 21.4221L13.117 21.33C13.5616 21.2316 13.7839 21.1813 13.9638 21.0473C14.1417 20.9133 14.256 20.7123 14.4846 20.3062L14.6921 19.9377Z" fill="url(#paint0_linear_577_1746)"/>
<defs>
<linearGradient id="paint0_linear_577_1746" x1="12.7875" y1="-2.47414" x2="13.3927" y2="42.414" gradientUnits="userSpaceOnUse">
<stop stop-color="#FFE600"/>
<stop offset="1" stop-color="#FF9900"/>
</linearGradient>
</defs>
</svg>
