<svg width="34" height="41" viewBox="0 0 34 41" fill="none" xmlns="http://www.w3.org/2000/svg">
<path fill-rule="evenodd" clip-rule="evenodd" d="M19.1249 0H14.8749C10.8714 0 8.86538 0 7.61589 1.23035C6.73831 2.09746 6.47906 3.34249 6.40465 5.39375C8.14714 5.24887 10.2106 5.24887 12.5374 5.24887H21.4603C23.7871 5.24678 25.8506 5.24678 27.5931 5.39375C27.5165 3.34249 27.2594 2.09955 26.3797 1.23035C25.1344 0 23.1326 0 19.1249 0ZM21.25 8.39819H12.75C6.74053 8.39819 3.73365 8.39819 1.8679 10.2437C0 12.0871 0 15.058 0 20.9955V23.2126C0 28.2599 0 30.7878 1.26861 32.818C2.53885 34.8454 4.82409 35.9749 9.39167 38.2324L9.39678 38.2349C13.1283 40.0783 14.994 41 17 41C19.006 41 20.8717 40.0783 24.6032 38.2349L24.6083 38.2324C29.1759 35.9749 31.4611 34.8454 32.7314 32.818C34 30.7878 34 28.262 34 23.2126V20.9955C34 15.058 34 12.0871 32.1321 10.2437C30.2664 8.39819 27.2595 8.39819 21.25 8.39819ZM15.1852 18.9442C15.9927 17.5102 16.3965 16.7964 17 16.7964C17.6035 16.7964 18.0073 17.5102 18.8148 18.9442L19.023 19.3137C19.2525 19.7211 19.3673 19.9226 19.5457 20.057C19.7244 20.1919 19.9445 20.2406 20.3808 20.3371L20.3958 20.3404L20.7995 20.4328L20.8084 20.4348C22.3707 20.7841 23.1522 20.9588 23.3389 21.5498C23.5256 22.143 22.9921 22.7592 21.9266 23.9898L21.9215 23.9958L21.6453 24.3149L21.6444 24.3159C21.3411 24.6659 21.1883 24.8421 21.1204 25.0581C21.0524 25.2765 21.0758 25.5095 21.1204 25.9777L21.1628 26.4039L21.1646 26.4224C21.325 28.0582 21.4054 28.8785 20.9185 29.2425C20.4298 29.6078 19.6945 29.2761 18.2261 28.6064L17.8479 28.4342L17.8419 28.4314C17.4272 28.2444 17.22 28.1507 17 28.1507C16.78 28.1507 16.5728 28.2444 16.1581 28.4314L16.1521 28.4342L15.7739 28.6064C14.3055 29.274 13.5702 29.6078 13.0815 29.2425C12.5949 28.8772 12.6756 28.0521 12.8372 26.4039L12.8796 25.9777L12.8813 25.9602C12.9248 25.5037 12.9468 25.2737 12.8796 25.0581C12.8126 24.8432 12.6634 24.6709 12.3688 24.3311L12.3547 24.3149L12.0785 23.9958L12.0734 23.9898C11.0079 22.7592 10.4744 22.143 10.6611 21.5498C10.8478 20.9588 11.6293 20.7841 13.1916 20.4348L13.2005 20.4328L13.6042 20.3404C14.0505 20.2417 14.2736 20.1914 14.4543 20.057C14.6327 19.9226 14.7475 19.7211 14.977 19.3137L15.1852 18.9442Z" fill="url(#paint0_linear_577_1748)"/>
<defs>
<linearGradient id="paint0_linear_577_1748" x1="17" y1="0" x2="17" y2="41" gradientUnits="userSpaceOnUse">
<stop stop-color="#E8E8E8"/>
<stop offset="1" stop-color="#BFBFBF"/>
</linearGradient>
</defs>
</svg>
