<svg width="30" height="30" viewBox="0 0 30 30" fill="none" xmlns="http://www.w3.org/2000/svg">
<path d="M22.8377 4.57466C22.9314 4.47957 23.0037 4.36556 23.0497 4.24027C23.0958 4.11498 23.1146 3.9813 23.1048 3.84817C23.095 3.71503 23.057 3.58552 22.9931 3.46829C22.9293 3.35107 22.8411 3.24883 22.7346 3.16841C22.54 3.03652 22.3048 2.97824 22.0712 3.00401C21.8375 3.02978 21.6207 3.13792 21.4596 3.30904L17.6486 7.11998C17.5683 7.20117 17.4611 7.25026 17.3472 7.25802C17.2333 7.26579 17.1204 7.2317 17.0299 7.16216L15.9377 6.35591C15.6566 6.14447 15.3144 6.03013 14.9627 6.03013C14.6109 6.03013 14.2688 6.14447 13.9877 6.35591L8.97674 10.1059C8.51277 10.4596 8.13771 10.9166 7.88138 11.4406C7.62505 11.9647 7.49452 12.5413 7.50018 13.1247V24.3747C7.50018 25.3692 7.89526 26.3231 8.59853 27.0263C9.30179 27.7296 10.2556 28.1247 11.2502 28.1247H18.7502C19.7447 28.1247 20.6986 27.7296 21.4018 27.0263C22.1051 26.3231 22.5002 25.3692 22.5002 24.3747V13.1247C22.5004 12.5413 22.3644 11.966 22.1032 11.4443C21.842 10.9227 21.4627 10.4693 20.9955 10.12L19.2564 8.81685C19.2087 8.78161 19.1691 8.73647 19.1404 8.68453C19.1117 8.63259 19.0945 8.57506 19.09 8.51588C19.0856 8.4567 19.094 8.39725 19.1146 8.3416C19.1352 8.28595 19.1676 8.2354 19.2096 8.19341L22.8377 4.57466ZM17.8127 11.7559C17.7127 12.2475 17.483 12.7034 17.1475 13.0764C16.812 13.4493 16.3829 13.7258 15.9046 13.877C15.4262 14.0282 14.9162 14.0488 14.4272 13.9366C13.9383 13.8243 13.4883 13.5833 13.1239 13.2386C12.7594 12.8938 12.4938 12.4579 12.3546 11.9759C12.2154 11.494 12.2076 10.9836 12.332 10.4976C12.4565 10.0116 12.7087 9.56777 13.0624 9.21208C13.4162 8.85638 13.8586 8.60178 14.3439 8.47466C14.8129 8.35462 15.3046 8.35462 15.7736 8.47466C15.8135 8.4854 15.8499 8.5065 15.879 8.53582C15.9081 8.56513 15.929 8.60163 15.9395 8.64161C15.9499 8.68159 15.9496 8.72362 15.9386 8.76345C15.9276 8.80328 15.9063 8.83949 15.8767 8.86841L14.3814 10.3637C14.2161 10.5216 14.1117 10.7328 14.0869 10.96C14.062 11.1873 14.1182 11.416 14.2455 11.6059C14.3245 11.7138 14.4256 11.8035 14.5421 11.8691C14.6586 11.9346 14.7878 11.9745 14.9209 11.9861C15.0541 11.9976 15.1882 11.9805 15.3143 11.936C15.4403 11.8914 15.5554 11.8205 15.6517 11.7278L17.2642 10.1153C17.2925 10.0879 17.3271 10.0678 17.365 10.057C17.4029 10.0462 17.4429 10.0449 17.4814 10.0532C17.5199 10.0616 17.5557 10.0793 17.5857 10.1049C17.6157 10.1304 17.6389 10.163 17.6533 10.1997C17.8505 10.6934 17.9058 11.2325 17.8127 11.7559Z" fill="white"/>
</svg>
