<svg width="31" height="44" viewBox="0 0 31 44" fill="none" xmlns="http://www.w3.org/2000/svg">
<path fill-rule="evenodd" clip-rule="evenodd" d="M26.4602 26.2896C23.5533 29.1777 19.6109 30.8002 15.5 30.8002C11.3891 30.8002 7.44667 29.1777 4.53984 26.2896C1.63303 23.4016 0 19.4845 0 15.4001C0 11.3157 1.63303 7.39865 4.53984 4.5106C7.44667 1.6225 11.3891 0 15.5 0C19.6109 0 23.5533 1.6225 26.4602 4.5106C29.367 7.39865 31 11.3157 31 15.4001C31 19.4845 29.367 23.4016 26.4602 26.2896ZM13.609 11.0507C14.4504 9.54807 14.8712 8.80006 15.5 8.80006C16.1288 8.80006 16.5496 9.54807 17.391 11.0507L17.608 11.4379C17.8471 11.8647 17.9667 12.0759 18.1527 12.2167C18.3389 12.3582 18.5685 12.4092 19.0237 12.5104L19.0384 12.5137L19.4591 12.6105L19.4682 12.6126C21.0963 12.9786 21.9107 13.1616 22.1052 13.7809C22.2998 14.4025 21.7438 15.0483 20.6334 16.3379L20.6283 16.3439L20.3404 16.6783C20.0238 17.0457 19.8644 17.2305 19.7935 17.4571C19.7235 17.6829 19.7464 17.9238 19.7917 18.4018L19.7935 18.4207L19.8378 18.8673L19.8397 18.8872C20.0067 20.601 20.0905 21.4604 19.5831 21.8417C19.0738 22.2245 18.3077 21.877 16.7776 21.1751L16.3835 20.9948L16.377 20.9918C15.9451 20.7957 15.7291 20.6977 15.5 20.6977C15.2709 20.6977 15.0549 20.7957 14.623 20.9918L14.6165 20.9948L14.2224 21.1751C12.6923 21.8747 11.9262 22.2245 11.4169 21.8417C10.9098 21.4589 10.9939 20.5943 11.1622 18.8673L11.2065 18.4207L11.2083 18.4018C11.2536 17.9238 11.2764 17.6829 11.2065 17.4571C11.1368 17.2319 10.9812 17.0515 10.6745 16.6956L10.6596 16.6783L10.3717 16.3439L10.3666 16.3379C9.2562 15.0483 8.70023 14.4025 8.89479 13.7809C9.08927 13.1616 9.90366 12.9786 11.5318 12.6126L11.5409 12.6105L11.9616 12.5137C12.4266 12.4103 12.6591 12.3575 12.8473 12.2167C13.0333 12.0759 13.1529 11.8647 13.392 11.4379L13.609 11.0507ZM3.79528 33.7105L4.6345 30.6701C7.8097 32.9072 11.6075 34.106 15.5 34.0999C19.3925 34.1058 23.1902 32.907 26.3655 30.6701L27.2047 33.7105L27.2118 33.7361C28.5976 38.7615 29.2912 41.2765 28.3628 42.6536C28.0373 43.1375 27.6011 43.5248 27.094 43.7822C25.6503 44.5126 23.4183 43.3576 18.9565 41.0476L18.9332 41.0355C17.4629 40.2757 16.7248 39.8943 15.9406 39.8111C15.6477 39.78 15.3523 39.78 15.0594 39.8111C14.2711 39.8947 13.5271 40.2775 12.0435 41.0476C7.5817 43.3576 5.34971 44.5126 3.90599 43.7822C3.39893 43.5248 2.9627 43.1375 2.63721 42.6536C1.70943 41.2741 2.40471 38.7529 3.79528 33.7105Z" fill="url(#paint0_linear_928_40)"/>
<defs>
<linearGradient id="paint0_linear_928_40" x1="15.5" y1="0" x2="15.5" y2="44" gradientUnits="userSpaceOnUse">
<stop stop-color="#D3E9EC"/>
<stop offset="1" stop-color="#99B2B6"/>
</linearGradient>
</defs>
</svg>
