<svg width="24" height="24" viewBox="0 0 24 24" fill="none" xmlns="http://www.w3.org/2000/svg">
<path d="M8.55 10.95C7.95 10.35 7.05 10.35 6.45 10.95C5.85 11.55 5.85 12.45 6.45 13.05L9.45 16.05C9.75 16.35 10.05 16.5 10.5 16.5C10.95 16.5 11.25 16.35 11.55 16.05L22.05 5.55C22.65 4.95 22.65 4.05 22.05 3.45C21.45 2.85 20.55 2.85 19.95 3.45L10.5 12.9L8.55 10.95Z" fill="url(#paint0_linear_577_1657)"/>
<path d="M10.5 24C16.35 24 21 19.35 21 13.5C21 12.6 20.4 12 19.5 12C18.6 12 18 12.6 18 13.5C18 17.7 14.7 21 10.5 21C6.3 21 3 17.7 3 13.5C3 9.3 6.3 6 10.5 6C11.4 6 12.15 6.15 13.05 6.45C13.8 6.75 14.7 6.3 15 5.55C15.3 4.8 14.85 3.9 14.1 3.6C12.9 3.15 11.7 3 10.5 3C4.65 3 0 7.65 0 13.5C0 19.35 4.65 24 10.5 24Z" fill="url(#paint1_linear_577_1657)"/>
<defs>
<linearGradient id="paint0_linear_577_1657" x1="12.3937" y1="2.18534" x2="19.3097" y2="12.5626" gradientUnits="userSpaceOnUse">
<stop stop-color="#FFB800"/>
<stop offset="1" stop-color="#FF9900"/>
</linearGradient>
<linearGradient id="paint1_linear_577_1657" x1="8.1375" y1="1.73276" x2="19.5526" y2="15.7467" gradientUnits="userSpaceOnUse">
<stop stop-color="#FFB800"/>
<stop offset="1" stop-color="#FF9900"/>
</linearGradient>
</defs>
</svg>
