<svg width="80" height="80" viewBox="0 0 80 80" fill="none" xmlns="http://www.w3.org/2000/svg">
<circle cx="40" cy="40" r="40" fill="#00BD50"/>
<g clip-path="url(#clip0_1184_5)">
<path d="M40.0002 37.425C44.5151 37.425 48.1752 33.7649 48.1752 29.25C48.1752 24.7351 44.5151 21.075 40.0002 21.075C35.4853 21.075 31.8252 24.7351 31.8252 29.25C31.8252 33.7649 35.4853 37.425 40.0002 37.425Z" stroke="white" stroke-width="3" stroke-miterlimit="10" stroke-linecap="square"/>
<path d="M25 52.5C25 48.5218 26.5804 44.7064 29.3934 41.8934C32.2064 39.0804 36.0218 37.5 40 37.5C43.9782 37.5 47.7936 39.0804 50.6066 41.8934C53.4196 44.7064 55 48.5218 55 52.5" stroke="white" stroke-width="3" stroke-miterlimit="10"/>
<path d="M35.5 38.0008L39 53.0008L33.1795 49.9975L34.3333 46.9942L32 45.4925L33.1795 39.4859L35.5 38.0008Z" stroke="white" stroke-width="3" stroke-miterlimit="10" stroke-linecap="square"/>
<path d="M44.5064 38.0008L41 53.0008L46.844 49.9975L45.6752 46.9942L48 45.4925L46.844 39.4859L44.5064 38.0008Z" stroke="white" stroke-width="3" stroke-miterlimit="10" stroke-linecap="square"/>
</g>
<defs>
<clipPath id="clip0_1184_5">
<rect width="36" height="36" fill="white" transform="translate(22 18)"/>
</clipPath>
</defs>
</svg>
