<svg width="80" height="80" viewBox="0 0 80 80" fill="none" xmlns="http://www.w3.org/2000/svg">
<circle cx="40" cy="40" r="40" fill="#2B73FF"/>
<path d="M52.885 31.405H27.115C25.5327 31.405 24.25 32.6877 24.25 34.27V51.445C24.25 53.0273 25.5327 54.31 27.115 54.31H52.885C54.4673 54.31 55.75 53.0273 55.75 51.445V34.27C55.75 32.6877 54.4673 31.405 52.885 31.405Z" stroke="white" stroke-width="3" stroke-miterlimit="10" stroke-linecap="square"/>
<path d="M42.8647 41.5H50.0197C50.7778 41.5021 51.5287 41.3533 52.2288 41.0623C52.9288 40.7713 53.564 40.3439 54.0973 39.8051C54.6305 39.2662 55.0513 38.6266 55.3349 37.9236C55.6186 37.2205 55.7596 36.4681 55.7497 35.71V34.21C55.7497 33.4502 55.4478 32.7215 54.9105 32.1842C54.3732 31.6469 53.6445 31.345 52.8847 31.345H27.1147C26.7333 31.3449 26.3558 31.421 26.0042 31.5687C25.6527 31.7164 25.3341 31.9328 25.0673 32.2053C24.8004 32.4777 24.5907 32.8007 24.4503 33.1552C24.3099 33.5098 24.2417 33.8888 24.2497 34.27V35.77C24.2477 36.5231 24.3945 37.2691 24.6818 37.9651C24.969 38.6612 25.391 39.2937 25.9235 39.8262C26.456 40.3586 27.0884 40.7806 27.7845 41.0679C28.4806 41.3552 29.2266 41.502 29.9797 41.5H42.8647Z" stroke="white" stroke-width="3" stroke-miterlimit="10"/>
<path d="M40 40V42.865" stroke="white" stroke-width="3" stroke-miterlimit="10" stroke-linecap="square"/>
<path d="M45.7295 31.405H34.2695L35.7095 25.69H44.2895L45.7295 31.405Z" stroke="white" stroke-width="3" stroke-miterlimit="10" stroke-linecap="square"/>
</svg>
