<svg width="80" height="80" viewBox="0 0 80 80" fill="none" xmlns="http://www.w3.org/2000/svg">
<circle cx="40" cy="40" r="40" fill="url(#paint0_linear_1184_2)"/>
<path d="M25.683 37.3334H28.8663V50.0667H25.683C24.8501 50.0669 24.0504 49.7407 23.4553 49.158C22.8601 48.5754 22.5171 47.7827 22.4996 46.95V40.6667C22.4793 40.2362 22.5466 39.8061 22.6975 39.4024C22.8484 38.9987 23.0796 38.6298 23.3773 38.3181C23.6749 38.0065 24.0328 37.7585 24.4291 37.5892C24.8254 37.4199 25.252 37.3329 25.683 37.3334Z" stroke="white" stroke-width="3" stroke-miterlimit="10"/>
<path d="M51.1328 37.3334H54.3161C54.7471 37.3329 55.1737 37.4199 55.57 37.5892C55.9664 37.7585 56.3242 38.0065 56.6218 38.3181C56.9195 38.6298 57.1508 38.9987 57.3016 39.4024C57.4525 39.8061 57.5198 40.2362 57.4995 40.6667V47.0334C57.4995 47.8776 57.1641 48.6873 56.5671 49.2843C55.9701 49.8813 55.1604 50.2167 54.3161 50.2167H51.1328V37.3334Z" stroke="white" stroke-width="3" stroke-miterlimit="10"/>
<path d="M52.7333 50.1333C52.7333 51.8218 52.0626 53.4412 50.8686 54.6352C49.6746 55.8292 48.0552 56.5 46.3667 56.5H40" stroke="white" stroke-width="3" stroke-miterlimit="10"/>
<path d="M27.2666 37.4167V34.2333C27.2666 30.8562 28.6081 27.6175 30.9961 25.2295C33.3841 22.8415 36.6228 21.5 39.9999 21.5C43.377 21.5 46.6158 22.8415 49.0038 25.2295C51.3917 27.6175 52.7333 30.8562 52.7333 34.2333V37.4167" stroke="white" stroke-width="3" stroke-miterlimit="10"/>
<defs>
<linearGradient id="paint0_linear_1184_2" x1="31" y1="-4.82759" x2="74.486" y2="48.5588" gradientUnits="userSpaceOnUse">
<stop stop-color="#FFB800"/>
<stop offset="1" stop-color="#FF9900"/>
</linearGradient>
</defs>
</svg>
