<svg width="37" height="37" viewBox="0 0 37 37" fill="none" xmlns="http://www.w3.org/2000/svg">
<path d="M2.625 28.875C4.07475 28.875 5.25 27.6997 5.25 26.25C5.25 24.8003 4.07475 23.625 2.625 23.625C1.17525 23.625 0 24.8003 0 26.25C0 27.6997 1.17525 28.875 2.625 28.875Z" fill="#00BD50"/>
<path d="M22.1091 26.25H14.6409C13.8037 26.25 13.125 26.9287 13.125 27.7659V28.6716C13.125 29.5088 13.8037 30.1875 14.6409 30.1875H22.1091C22.9463 30.1875 23.625 29.5088 23.625 28.6716V27.7659C23.625 26.9287 22.9463 26.25 22.1091 26.25Z" fill="#00BD50"/>
<path d="M22.1091 32.8125H14.6409C13.8037 32.8125 13.125 33.4912 13.125 34.3284V35.2341C13.125 36.0713 13.8037 36.75 14.6409 36.75H22.1091C22.9463 36.75 23.625 36.0713 23.625 35.2341V34.3284C23.625 33.4912 22.9463 32.8125 22.1091 32.8125Z" fill="#00BD50"/>
<path d="M8.98406 32.8125H1.51594C0.678708 32.8125 0 33.4912 0 34.3284V35.2341C0 36.0713 0.678708 36.75 1.51594 36.75H8.98406C9.82129 36.75 10.5 36.0713 10.5 35.2341V34.3284C10.5 33.4912 9.82129 32.8125 8.98406 32.8125Z" fill="#00BD50"/>
<path d="M35.2341 19.6875H27.7659C26.9287 19.6875 26.25 20.3662 26.25 21.2034V22.1091C26.25 22.9463 26.9287 23.625 27.7659 23.625H35.2341C36.0713 23.625 36.75 22.9463 36.75 22.1091V21.2034C36.75 20.3662 36.0713 19.6875 35.2341 19.6875Z" fill="#00BD50"/>
<path d="M35.2341 26.25H27.7659C26.9287 26.25 26.25 26.9287 26.25 27.7659V28.6716C26.25 29.5088 26.9287 30.1875 27.7659 30.1875H35.2341C36.0713 30.1875 36.75 29.5088 36.75 28.6716V27.7659C36.75 26.9287 36.0713 26.25 35.2341 26.25Z" fill="#00BD50"/>
<path d="M35.2341 32.8125H27.7659C26.9287 32.8125 26.25 33.4912 26.25 34.3284V35.2341C26.25 36.0713 26.9287 36.75 27.7659 36.75H35.2341C36.0713 36.75 36.75 36.0713 36.75 35.2341V34.3284C36.75 33.4912 36.0713 32.8125 35.2341 32.8125Z" fill="#00BD50"/>
<path d="M31.933 4.81658C31.8111 4.69455 31.6663 4.59774 31.507 4.53169C31.3477 4.46564 31.1769 4.43164 31.0044 4.43164C30.8319 4.43164 30.6611 4.46564 30.5018 4.53169C30.3424 4.59774 30.1977 4.69455 30.0758 4.81658L22.1549 12.7375L18.9852 9.56783C18.8633 9.4458 18.7185 9.34899 18.5592 9.28294C18.3999 9.21689 18.2291 9.18289 18.0566 9.18289C17.8841 9.18289 17.7133 9.21689 17.554 9.28294C17.3946 9.34899 17.2499 9.4458 17.128 9.56783L5.97174 20.7241C5.85109 20.849 5.75623 20.9965 5.69258 21.1582C5.62893 21.3198 5.59774 21.4924 5.60079 21.666C5.60384 21.8397 5.64106 22.0111 5.71034 22.1704C5.77962 22.3297 5.87959 22.4737 6.00455 22.5944C6.12951 22.715 6.27701 22.8099 6.43863 22.8735C6.60025 22.9372 6.77283 22.9684 6.9465 22.9653C7.12018 22.9623 7.29155 22.9251 7.45084 22.8558C7.61013 22.7865 7.75421 22.6865 7.87486 22.5616L18.0533 12.3569L21.223 15.5266C21.3449 15.6486 21.4896 15.7454 21.649 15.8115C21.8083 15.8775 21.9791 15.9115 22.1516 15.9115C22.3241 15.9115 22.4949 15.8775 22.6542 15.8115C22.8135 15.7454 22.9583 15.6486 23.0802 15.5266L31.933 6.6672C32.1774 6.42129 32.3147 6.08864 32.3147 5.74189C32.3147 5.39515 32.1774 5.06249 31.933 4.81658Z" fill="#00BD50"/>
<path d="M28.875 1.3125C28.875 1.6606 29.0133 1.99444 29.2594 2.24058C29.5056 2.48672 29.8394 2.625 30.1875 2.625H34.125V6.5625C34.125 6.9106 34.2633 7.24444 34.5094 7.49058C34.7556 7.73672 35.0894 7.875 35.4375 7.875C35.7856 7.875 36.1194 7.73672 36.3656 7.49058C36.6117 7.24444 36.75 6.9106 36.75 6.5625V1.3125C36.75 0.964403 36.6117 0.630564 36.3656 0.384422C36.1194 0.138281 35.7856 0 35.4375 0H30.1875C29.8394 0 29.5056 0.138281 29.2594 0.384422C29.0133 0.630564 28.875 0.964403 28.875 1.3125Z" fill="#00BD50"/>
</svg>
