<svg width="39" height="37" viewBox="0 0 39 37" fill="none" xmlns="http://www.w3.org/2000/svg">
<path d="M8.08087 10.6695C10.045 10.6695 11.6373 9.07727 11.6373 7.11309C11.6373 5.14892 10.045 3.55664 8.08087 3.55664C6.11669 3.55664 4.52441 5.14892 4.52441 7.11309C4.52441 9.07727 6.11669 10.6695 8.08087 10.6695Z" fill="#00BD50"/>
<path d="M9.26616 29.6378V17.783C9.26616 16.0296 9.81623 14.4043 10.748 13.0624C10.6496 13.0564 10.5512 13.041 10.4516 13.041H5.70971C3.09453 13.041 0.967773 15.1678 0.967773 17.783V24.8959H3.33874V33.1942H11.6371V29.6378H9.26616Z" fill="#00BD50"/>
<path d="M31.7908 10.6695C33.755 10.6695 35.3473 9.07727 35.3473 7.11309C35.3473 5.14892 33.755 3.55664 31.7908 3.55664C29.8267 3.55664 28.2344 5.14892 28.2344 7.11309C28.2344 9.07727 29.8267 10.6695 31.7908 10.6695Z" fill="#00BD50"/>
<path d="M30.6053 29.6378V17.783C30.6053 16.0296 30.0553 14.4043 29.1235 13.0624C29.2219 13.0564 29.3203 13.041 29.4199 13.041H34.1618C36.777 13.041 38.9037 15.1678 38.9037 17.783V24.8959H36.5328V33.1942H28.2344V29.6378H30.6053Z" fill="#00BD50"/>
<path d="M22.3061 11.8555H17.5641C14.2958 11.8555 11.6367 14.5145 11.6367 17.7829V27.2668H15.1932V36.7506H24.677V27.2668H28.2335V17.7829C28.2335 14.5145 25.5745 11.8555 22.3061 11.8555Z" fill="#00BD50"/>
<path d="M19.9353 9.48387C22.5542 9.48387 24.6772 7.36083 24.6772 4.74194C24.6772 2.12304 22.5542 0 19.9353 0C17.3164 0 15.1934 2.12304 15.1934 4.74194C15.1934 7.36083 17.3164 9.48387 19.9353 9.48387Z" fill="#00BD50"/>
</svg>
