<svg width="38" height="38" viewBox="0 0 38 38" fill="none" xmlns="http://www.w3.org/2000/svg">
<path d="M19 38C22.7578 38 26.4313 36.8857 29.5558 34.7979C32.6804 32.7102 35.1156 29.7428 36.5537 26.271C37.9918 22.7992 38.368 18.9789 37.6349 15.2933C36.9018 11.6077 35.0922 8.22218 32.435 5.56498C29.7778 2.90778 26.3924 1.09821 22.7067 0.365088C19.0211 -0.368031 15.2008 0.00823244 11.729 1.4463C8.25722 2.88436 5.28982 5.31964 3.20208 8.44418C1.11433 11.5687 0 15.2422 0 19C0 24.0391 2.00178 28.8718 5.56497 32.435C9.12816 35.9982 13.9609 38 19 38ZM22.5704 15.4929C25.175 12.8883 26.8454 12.8883 29.45 15.4929C29.7471 15.79 29.914 16.193 29.914 16.6131C29.914 17.0333 29.7471 17.4362 29.45 17.7333C29.1529 18.0304 28.75 18.1973 28.3298 18.1973C27.9096 18.1973 27.5067 18.0304 27.2096 17.7333C26.8632 17.3354 26.4573 16.9936 26.0063 16.72C25.555 16.9933 25.149 17.3352 24.8029 17.7333C24.5058 18.0304 24.1029 18.1973 23.6827 18.1973C23.2626 18.1973 22.8596 18.0304 22.5625 17.7333C22.2654 17.4362 22.0985 17.0333 22.0985 16.6131C22.0985 16.193 22.2654 15.79 22.5625 15.4929H22.5704ZM26.6317 22.1667C26.9288 21.8696 27.3317 21.7027 27.7519 21.7027C28.172 21.7027 28.575 21.8696 28.8721 22.1667C29.1692 22.4638 29.3361 22.8667 29.3361 23.2869C29.3361 23.707 29.1692 24.11 28.8721 24.4071C26.2527 27.0201 22.7038 28.4875 19.004 28.4875C15.3041 28.4875 11.7553 27.0201 9.13583 24.4071C8.97664 24.2634 8.84831 24.0888 8.75863 23.8939C8.66896 23.6991 8.6198 23.4881 8.61414 23.2737C8.60849 23.0593 8.64645 22.8459 8.72573 22.6466C8.80502 22.4474 8.92396 22.2663 9.07536 22.1143C9.22675 21.9624 9.40744 21.8428 9.60645 21.7628C9.80546 21.6828 10.0186 21.6441 10.2331 21.649C10.4475 21.6539 10.6587 21.7023 10.8538 21.7913C11.049 21.8803 11.224 22.008 11.3683 22.1667C13.3941 24.1874 16.1387 25.3223 19 25.3223C21.8613 25.3223 24.6059 24.1874 26.6317 22.1667ZM8.55792 15.4929C11.1625 12.8883 12.8329 12.8883 15.4375 15.4929C15.7346 15.79 15.9015 16.193 15.9015 16.6131C15.9015 17.0333 15.7346 17.4362 15.4375 17.7333C15.1404 18.0304 14.7375 18.1973 14.3173 18.1973C13.8971 18.1973 13.4942 18.0304 13.1971 17.7333C12.851 17.3352 12.445 16.9933 11.9937 16.72C11.5427 16.9936 11.1368 17.3354 10.7904 17.7333C10.4933 18.0304 10.0904 18.1973 9.67021 18.1973C9.25005 18.1973 8.8471 18.0304 8.55 17.7333C8.2529 17.4362 8.08599 17.0333 8.08599 16.6131C8.08599 16.193 8.2529 15.79 8.55 15.4929H8.55792Z" fill="#00BD50"/>
</svg>
