<svg width="37" height="37" viewBox="0 0 37 37" fill="none" xmlns="http://www.w3.org/2000/svg">
<path d="M34.125 18.3771V16.1064C34.125 7.29957 26.9062 -0.142309 18.1059 0.00206611C13.9756 0.0726366 10.0383 1.76311 7.14254 4.70919C4.24678 7.65528 2.6244 11.6211 2.625 15.7521V18.3771C1.92881 18.3771 1.26113 18.6536 0.768845 19.1459C0.276562 19.6382 0 20.3059 0 21.0021V28.8771C0 29.5733 0.276562 30.2409 0.768845 30.7332C1.26113 31.2255 1.92881 31.5021 2.625 31.5021H5.25C5.94619 31.5021 6.61387 31.2255 7.10616 30.7332C7.59844 30.2409 7.875 29.5733 7.875 28.8771V16.0474C7.875 10.3971 12.2194 5.54738 17.8697 5.26519C19.2894 5.19679 20.7082 5.41734 22.0401 5.91347C23.3721 6.40961 24.5894 7.171 25.6184 8.15152C26.6474 9.13203 27.4666 10.3113 28.0264 11.6177C28.5862 12.9242 28.8749 14.3307 28.875 15.7521V29.5333C28.875 30.7517 28.391 31.9201 27.5295 32.7816C26.668 33.6431 25.4996 34.1271 24.2812 34.1271C23.0629 34.1271 21.8945 33.6431 21.033 32.7816C20.1715 31.9201 19.6875 30.7517 19.6875 29.5333V28.8771C20.0356 28.8771 20.3694 28.7388 20.6156 28.4926C20.8617 28.2465 21 27.9127 21 27.5646V22.3146C21 21.9665 20.8617 21.6326 20.6156 21.3865C20.3694 21.1403 20.0356 21.0021 19.6875 21.0021H17.0625C16.7144 21.0021 16.3806 21.1403 16.1344 21.3865C15.8883 21.6326 15.75 21.9665 15.75 22.3146V27.5646C15.75 27.9127 15.8883 28.2465 16.1344 28.4926C16.3806 28.7388 16.7144 28.8771 17.0625 28.8771V29.5333C17.0642 31.2745 17.6951 32.9563 18.839 34.269C19.9829 35.5816 21.5627 36.4366 23.2873 36.6764C25.0118 36.9161 26.7649 36.5245 28.2235 35.5736C29.6821 34.6227 30.7478 33.1767 31.2244 31.5021C31.3162 31.507 31.4082 31.507 31.5 31.5021H34.125C34.8212 31.5021 35.4889 31.2255 35.9812 30.7332C36.4734 30.2409 36.75 29.5733 36.75 28.8771V21.0021C36.75 20.3059 36.4734 19.6382 35.9812 19.1459C35.4889 18.6536 34.8212 18.3771 34.125 18.3771Z" fill="#00BD50"/>
<path d="M17.64 19.6905H19.11C19.2632 19.6905 19.4101 19.6296 19.5184 19.5213C19.6267 19.413 19.6875 19.2661 19.6875 19.113V13.3642C19.6867 13.2114 19.6254 13.0651 19.5169 12.9574L18.7819 12.2224C18.6737 12.115 18.5274 12.0547 18.375 12.0547C18.2226 12.0547 18.0763 12.115 17.9681 12.2224L17.2331 12.9574C17.1246 13.0651 17.0633 13.2114 17.0625 13.3642V19.113C17.0625 19.2661 17.1233 19.413 17.2316 19.5213C17.3399 19.6296 17.4868 19.6905 17.64 19.6905Z" fill="#00BD50"/>
</svg>
